{
	"asset":{
		"generator":"Khronos glTF Blender I/O v5.1.19",
		"version":"2.0"
	},
	"extensionsUsed":[
		"KHR_materials_specular",
		"KHR_materials_ior"
	],
	"scene":0,
	"scenes":[
		{
			"name":"Scene",
			"nodes":[
				0
			]
		}
	],
	"nodes":[
		{
			"mesh":0,
			"name":"object1"
		}
	],
	"materials":[
		{
			"doubleSided":true,
			"extensions":{
				"KHR_materials_specular":{
					"specularColorFactor":[
						2.0,
						2.0,
						2.0
					]
				},
				"KHR_materials_ior":{
					"ior":1
				}
			},
			"name":"Iron",
			"pbrMetallicRoughness":{
				"baseColorFactor":[
					0.03486204892396927,
					0.03486204892396927,
					0.03486204892396927,
					1
				],
				"metallicFactor":0
			}
		}
	],
	"meshes":[
		{
			"name":"object1",
			"primitives":[
				{
					"attributes":{
						"POSITION":0,
						"NORMAL":1,
						"TEXCOORD_0":2
					},
					"indices":3,
					"material":0
				}
			]
		}
	],
	"accessors":[
		{
			"bufferView":0,
			"componentType":5126,
			"count":316,
			"max":[
				0.46904444694519043,
				0.8999999761581421,
				0.018924329429864883
			],
			"min":[
				-0.46904441714286804,
				-2.9802322387695312e-08,
				-0.031075719743967056
			],
			"type":"VEC3"
		},
		{
			"bufferView":1,
			"componentType":5126,
			"count":316,
			"type":"VEC3"
		},
		{
			"bufferView":2,
			"componentType":5126,
			"count":316,
			"type":"VEC2"
		},
		{
			"bufferView":3,
			"componentType":5123,
			"count":663,
			"type":"SCALAR"
		}
	],
	"bufferViews":[
		{
			"buffer":0,
			"byteLength":3792,
			"byteOffset":0,
			"target":34962
		},
		{
			"buffer":0,
			"byteLength":3792,
			"byteOffset":3792,
			"target":34962
		},
		{
			"buffer":0,
			"byteLength":2528,
			"byteOffset":7584,
			"target":34962
		},
		{
			"buffer":0,
			"byteLength":1326,
			"byteOffset":10112,
			"target":34963
		}
	],
	"buffers":[
		{
			"byteLength":11440,
			"uri":"Cage.bin"
		}
	]
}
