{
	"asset":{
		"generator":"Khronos glTF Blender I/O v5.1.19",
		"version":"2.0"
	},
	"scene":0,
	"scenes":[
		{
			"name":"Scene",
			"nodes":[
				0
			]
		}
	],
	"nodes":[
		{
			"mesh":0,
			"name":"staff",
			"scale":[
				0.020299017429351807,
				0.01123986765742302,
				0.020299017429351807
			],
			"translation":[
				-0.0032907724380493164,
				0.006452104076743126,
				-0.02097644843161106
			]
		}
	],
	"materials":[
		{
			"doubleSided":true,
			"name":"staff01",
			"normalTexture":{
				"index":0
			},
			"pbrMetallicRoughness":{
				"baseColorTexture":{
					"index":1
				},
				"metallicFactor":0
			}
		}
	],
	"meshes":[
		{
			"name":"Circle.001",
			"primitives":[
				{
					"attributes":{
						"POSITION":0,
						"NORMAL":1,
						"TEXCOORD_0":2
					},
					"indices":3,
					"material":0
				}
			]
		}
	],
	"textures":[
		{
			"sampler":0,
			"source":0
		},
		{
			"sampler":0,
			"source":1
		}
	],
	"images":[
		{
			"mimeType":"image/png",
			"name":"StaffGemRoyalD_normal",
			"uri":"StaffGemRoyalD_normal.png"
		},
		{
			"mimeType":"image/png",
			"name":"StaffGemRoyalD",
			"uri":"StaffGemRoyalD.png"
		}
	],
	"accessors":[
		{
			"bufferView":0,
			"componentType":5126,
			"count":460,
			"max":[
				2.880913496017456,
				61.63121032714844,
				1.2709943056106567
			],
			"min":[
				-1.2709943056106567,
				-0.4230574369430542,
				-4.840997695922852
			],
			"type":"VEC3"
		},
		{
			"bufferView":1,
			"componentType":5126,
			"count":460,
			"type":"VEC3"
		},
		{
			"bufferView":2,
			"componentType":5126,
			"count":460,
			"type":"VEC2"
		},
		{
			"bufferView":3,
			"componentType":5123,
			"count":636,
			"type":"SCALAR"
		}
	],
	"bufferViews":[
		{
			"buffer":0,
			"byteLength":5520,
			"byteOffset":0,
			"target":34962
		},
		{
			"buffer":0,
			"byteLength":5520,
			"byteOffset":5520,
			"target":34962
		},
		{
			"buffer":0,
			"byteLength":3680,
			"byteOffset":11040,
			"target":34962
		},
		{
			"buffer":0,
			"byteLength":1272,
			"byteOffset":14720,
			"target":34963
		}
	],
	"samplers":[
		{
			"magFilter":9729,
			"minFilter":9987
		}
	],
	"buffers":[
		{
			"byteLength":15992,
			"uri":"MagicwandBlue.bin"
		}
	]
}
