{
	"asset":{
		"generator":"Khronos glTF Blender I/O v5.1.19",
		"version":"2.0"
	},
	"scene":0,
	"scenes":[
		{
			"name":"Scene",
			"nodes":[
				0,
				1,
				2,
				3,
				4,
				5,
				6,
				7,
				8
			]
		}
	],
	"nodes":[
		{
			"mesh":0,
			"name":"BlockCrackMD.002"
		},
		{
			"mesh":1,
			"name":"COL"
		},
		{
			"mesh":2,
			"name":"COL1"
		},
		{
			"mesh":3,
			"name":"COL2"
		},
		{
			"mesh":4,
			"name":"COL3"
		},
		{
			"mesh":5,
			"name":"COL8"
		},
		{
			"mesh":6,
			"name":"COL4"
		},
		{
			"mesh":7,
			"name":"COL7"
		},
		{
			"mesh":8,
			"name":"COL9"
		}
	],
	"materials":[
		{
			"doubleSided":true,
			"name":"BlockCrackMD_2_Material.002",
			"pbrMetallicRoughness":{
				"baseColorTexture":{
					"index":0
				},
				"metallicFactor":0
			}
		},
		{
			"doubleSided":true,
			"name":"BlockCrackMD_2_Material.001",
			"pbrMetallicRoughness":{
				"baseColorTexture":{
					"index":1
				},
				"metallicFactor":0
			}
		},
		{
			"doubleSided":true,
			"name":"StairsMD_1_Material",
			"pbrMetallicRoughness":{
				"baseColorTexture":{
					"index":2
				},
				"metallicFactor":0
			}
		},
		{
			"doubleSided":true,
			"name":"Gate_1_Material",
			"pbrMetallicRoughness":{
				"baseColorTexture":{
					"index":3
				},
				"metallicFactor":0
			}
		},
		{
			"doubleSided":true,
			"name":"BlockCrackMD_2_Material",
			"pbrMetallicRoughness":{
				"baseColorTexture":{
					"index":4
				},
				"metallicFactor":0
			}
		},
		{
			"doubleSided":true,
			"name":"WallNormalXL_1_Material",
			"pbrMetallicRoughness":{
				"baseColorTexture":{
					"index":5
				},
				"metallicFactor":0
			}
		},
		{
			"doubleSided":true,
			"name":"WallNormalXL_1_Material.001",
			"pbrMetallicRoughness":{
				"baseColorTexture":{
					"index":6
				},
				"metallicFactor":0
			}
		},
		{
			"doubleSided":true,
			"name":"WallNormalXL_1_Material.002",
			"pbrMetallicRoughness":{
				"baseColorTexture":{
					"index":7
				},
				"metallicFactor":0
			}
		},
		{
			"doubleSided":true,
			"name":"WallNormalXL_1_Material.003",
			"pbrMetallicRoughness":{
				"baseColorTexture":{
					"index":8
				},
				"metallicFactor":0
			}
		},
		{
			"doubleSided":true,
			"name":"WallNormalXL_1_Material.004",
			"pbrMetallicRoughness":{
				"baseColorTexture":{
					"index":9
				},
				"metallicFactor":0
			}
		}
	],
	"meshes":[
		{
			"name":"BlockCrackMD_2.002",
			"primitives":[
				{
					"attributes":{
						"POSITION":0,
						"NORMAL":1,
						"TEXCOORD_0":2
					},
					"indices":3,
					"material":0
				},
				{
					"attributes":{
						"POSITION":4,
						"NORMAL":5,
						"TEXCOORD_0":6
					},
					"indices":7,
					"material":1
				},
				{
					"attributes":{
						"POSITION":8,
						"NORMAL":9,
						"TEXCOORD_0":10
					},
					"indices":11,
					"material":2
				},
				{
					"attributes":{
						"POSITION":12,
						"NORMAL":13,
						"TEXCOORD_0":14
					},
					"indices":15,
					"material":3
				},
				{
					"attributes":{
						"POSITION":16,
						"NORMAL":17,
						"TEXCOORD_0":18
					},
					"indices":19,
					"material":4
				},
				{
					"attributes":{
						"POSITION":20,
						"NORMAL":21,
						"TEXCOORD_0":22
					},
					"indices":23,
					"material":5
				},
				{
					"attributes":{
						"POSITION":24,
						"NORMAL":25,
						"TEXCOORD_0":26
					},
					"indices":27,
					"material":6
				},
				{
					"attributes":{
						"POSITION":28,
						"NORMAL":29,
						"TEXCOORD_0":30
					},
					"indices":31,
					"material":7
				},
				{
					"attributes":{
						"POSITION":32,
						"NORMAL":33,
						"TEXCOORD_0":34
					},
					"indices":35,
					"material":8
				},
				{
					"attributes":{
						"POSITION":36,
						"NORMAL":37,
						"TEXCOORD_0":38
					},
					"indices":39,
					"material":9
				}
			]
		},
		{
			"name":"\u7acb\u65b9\u4f53",
			"primitives":[
				{
					"attributes":{
						"POSITION":40,
						"NORMAL":41,
						"TEXCOORD_0":42
					},
					"indices":43
				}
			]
		},
		{
			"name":"\u7acb\u65b9\u4f53.001",
			"primitives":[
				{
					"attributes":{
						"POSITION":44,
						"NORMAL":45,
						"TEXCOORD_0":46
					},
					"indices":43
				}
			]
		},
		{
			"name":"\u7acb\u65b9\u4f53.002",
			"primitives":[
				{
					"attributes":{
						"POSITION":47,
						"NORMAL":48,
						"TEXCOORD_0":49
					},
					"indices":43
				}
			]
		},
		{
			"name":"\u5e73\u9762",
			"primitives":[
				{
					"attributes":{
						"POSITION":50,
						"NORMAL":51,
						"TEXCOORD_0":52
					},
					"indices":53
				}
			]
		},
		{
			"name":"BlockCrackMD_2.004",
			"primitives":[
				{
					"attributes":{
						"POSITION":54,
						"NORMAL":55,
						"TEXCOORD_0":56
					},
					"indices":57
				}
			]
		},
		{
			"name":"\u7acb\u65b9\u4f53.003",
			"primitives":[
				{
					"attributes":{
						"POSITION":58,
						"NORMAL":59,
						"TEXCOORD_0":60
					},
					"indices":61
				}
			]
		},
		{
			"name":"BlockCrackMD_2.005",
			"primitives":[
				{
					"attributes":{
						"POSITION":62,
						"NORMAL":63,
						"TEXCOORD_0":64
					},
					"indices":65
				}
			]
		},
		{
			"name":"BlockCrackMD_2.006",
			"primitives":[
				{
					"attributes":{
						"POSITION":66,
						"NORMAL":67,
						"TEXCOORD_0":68
					},
					"indices":69
				}
			]
		}
	],
	"textures":[
		{
			"sampler":0,
			"source":0
		},
		{
			"sampler":0,
			"source":0
		},
		{
			"sampler":0,
			"source":1
		},
		{
			"sampler":0,
			"source":2
		},
		{
			"sampler":0,
			"source":0
		},
		{
			"sampler":0,
			"source":3
		},
		{
			"sampler":0,
			"source":3
		},
		{
			"sampler":0,
			"source":3
		},
		{
			"sampler":0,
			"source":3
		},
		{
			"sampler":0,
			"source":3
		}
	],
	"images":[
		{
			"mimeType":"image/png",
			"name":"BlockCrackMD_2_Color",
			"uri":"BlockCrackMD_2_Color.png"
		},
		{
			"mimeType":"image/png",
			"name":"StairsMD_1_Color",
			"uri":"StairsMD_1_Color.png"
		},
		{
			"mimeType":"image/png",
			"name":"Gate_1_Color",
			"uri":"Gate_1_Color.png"
		},
		{
			"mimeType":"image/png",
			"name":"WallNormalXL_1_Color",
			"uri":"WallNormalXL_1_Color.png"
		}
	],
	"accessors":[
		{
			"bufferView":0,
			"componentType":5126,
			"count":10725,
			"max":[
				-3.239753246307373,
				0.6689276099205017,
				0.9240240454673767
			],
			"min":[
				-4.634947299957275,
				0.3295796513557434,
				-0.9414471983909607
			],
			"type":"VEC3"
		},
		{
			"bufferView":1,
			"componentType":5126,
			"count":10725,
			"type":"VEC3"
		},
		{
			"bufferView":2,
			"componentType":5126,
			"count":10725,
			"type":"VEC2"
		},
		{
			"bufferView":3,
			"componentType":5123,
			"count":21270,
			"type":"SCALAR"
		},
		{
			"bufferView":4,
			"componentType":5126,
			"count":10720,
			"max":[
				-0.37226569652557373,
				0.02712305635213852,
				0.9355318546295166
			],
			"min":[
				-1.7674598693847656,
				-0.31222495436668396,
				-0.9299395084381104
			],
			"type":"VEC3"
		},
		{
			"bufferView":5,
			"componentType":5126,
			"count":10720,
			"type":"VEC3"
		},
		{
			"bufferView":6,
			"componentType":5126,
			"count":10720,
			"type":"VEC2"
		},
		{
			"bufferView":7,
			"componentType":5123,
			"count":21258,
			"type":"SCALAR"
		},
		{
			"bufferView":8,
			"componentType":5126,
			"count":1421,
			"max":[
				-1.6277319192886353,
				0.6677449345588684,
				0.9401952624320984
			],
			"min":[
				-3.2799649238586426,
				-0.022449921816587448,
				-0.9617234468460083
			],
			"type":"VEC3"
		},
		{
			"bufferView":9,
			"componentType":5126,
			"count":1421,
			"type":"VEC3"
		},
		{
			"bufferView":10,
			"componentType":5126,
			"count":1421,
			"type":"VEC2"
		},
		{
			"bufferView":11,
			"componentType":5123,
			"count":2724,
			"type":"SCALAR"
		},
		{
			"bufferView":12,
			"componentType":5126,
			"count":7816,
			"max":[
				-3.1065609455108643,
				1.902835488319397,
				0.9119105339050293
			],
			"min":[
				-3.4528565406799316,
				0.5691660642623901,
				-0.9583476781845093
			],
			"type":"VEC3"
		},
		{
			"bufferView":13,
			"componentType":5126,
			"count":7816,
			"type":"VEC3"
		},
		{
			"bufferView":14,
			"componentType":5126,
			"count":7816,
			"type":"VEC2"
		},
		{
			"bufferView":15,
			"componentType":5123,
			"count":15258,
			"type":"SCALAR"
		},
		{
			"bufferView":16,
			"componentType":5126,
			"count":10729,
			"max":[
				2.5180888175964355,
				0.016127508133649826,
				1.1399117708206177
			],
			"min":[
				0.5305880308151245,
				-0.28719180822372437,
				-1.1131936311721802
			],
			"type":"VEC3"
		},
		{
			"bufferView":17,
			"componentType":5126,
			"count":10729,
			"type":"VEC3"
		},
		{
			"bufferView":18,
			"componentType":5126,
			"count":10729,
			"type":"VEC2"
		},
		{
			"bufferView":19,
			"componentType":5123,
			"count":21270,
			"type":"SCALAR"
		},
		{
			"bufferView":20,
			"componentType":5126,
			"count":8658,
			"max":[
				2.5324509143829346,
				0.9367789030075073,
				-0.9301062822341919
			],
			"min":[
				0.5907056927680969,
				-0.194294735789299,
				-1.3095289468765259
			],
			"type":"VEC3"
		},
		{
			"bufferView":21,
			"componentType":5126,
			"count":8658,
			"type":"VEC3"
		},
		{
			"bufferView":22,
			"componentType":5126,
			"count":8658,
			"type":"VEC2"
		},
		{
			"bufferView":23,
			"componentType":5123,
			"count":17130,
			"type":"SCALAR"
		},
		{
			"bufferView":24,
			"componentType":5126,
			"count":8658,
			"max":[
				2.5254452228546143,
				0.925483226776123,
				1.3125035762786865
			],
			"min":[
				0.5837004780769348,
				-0.20559057593345642,
				0.9330809712409973
			],
			"type":"VEC3"
		},
		{
			"bufferView":25,
			"componentType":5126,
			"count":8658,
			"type":"VEC3"
		},
		{
			"bufferView":26,
			"componentType":5126,
			"count":8658,
			"type":"VEC2"
		},
		{
			"bufferView":27,
			"componentType":5123,
			"count":17130,
			"type":"SCALAR"
		},
		{
			"bufferView":28,
			"componentType":5126,
			"count":8666,
			"max":[
				2.735541582107544,
				0.9061170220375061,
				1.2030359506607056
			],
			"min":[
				2.357093572616577,
				-0.22495685517787933,
				-1.2892111539840698
			],
			"type":"VEC3"
		},
		{
			"bufferView":29,
			"componentType":5126,
			"count":8666,
			"type":"VEC3"
		},
		{
			"bufferView":30,
			"componentType":5126,
			"count":8666,
			"type":"VEC2"
		},
		{
			"bufferView":31,
			"componentType":5123,
			"count":17130,
			"type":"SCALAR"
		},
		{
			"bufferView":32,
			"componentType":5126,
			"count":8645,
			"max":[
				-0.19330494105815887,
				1.861378788948059,
				1.2953860759735107
			],
			"min":[
				-3.58562970161438,
				-0.2603515684604645,
				0.8497380614280701
			],
			"type":"VEC3"
		},
		{
			"bufferView":33,
			"componentType":5126,
			"count":8645,
			"type":"VEC3"
		},
		{
			"bufferView":34,
			"componentType":5126,
			"count":8645,
			"type":"VEC2"
		},
		{
			"bufferView":35,
			"componentType":5123,
			"count":17130,
			"type":"SCALAR"
		},
		{
			"bufferView":36,
			"componentType":5126,
			"count":8650,
			"max":[
				-0.19330494105815887,
				1.861378788948059,
				-0.8715432286262512
			],
			"min":[
				-3.58562970161438,
				-0.2603515684604645,
				-1.317191243171692
			],
			"type":"VEC3"
		},
		{
			"bufferView":37,
			"componentType":5126,
			"count":8650,
			"type":"VEC3"
		},
		{
			"bufferView":38,
			"componentType":5126,
			"count":8650,
			"type":"VEC2"
		},
		{
			"bufferView":39,
			"componentType":5123,
			"count":17136,
			"type":"SCALAR"
		},
		{
			"bufferView":40,
			"componentType":5126,
			"count":24,
			"max":[
				-0.38795268535614014,
				-0.009840340353548527,
				0.9678713083267212
			],
			"min":[
				-1.8734673261642456,
				-0.3000602722167969,
				-0.9773173928260803
			],
			"type":"VEC3"
		},
		{
			"bufferView":41,
			"componentType":5126,
			"count":24,
			"type":"VEC3"
		},
		{
			"bufferView":42,
			"componentType":5126,
			"count":24,
			"type":"VEC2"
		},
		{
			"bufferView":43,
			"componentType":5123,
			"count":36,
			"type":"SCALAR"
		},
		{
			"bufferView":44,
			"componentType":5126,
			"count":24,
			"max":[
				2.616682291030884,
				-0.009840340353548527,
				1.0718436241149902
			],
			"min":[
				0.5618120431900024,
				-0.3000602722167969,
				-1.0812904834747314
			],
			"type":"VEC3"
		},
		{
			"bufferView":45,
			"componentType":5126,
			"count":24,
			"type":"VEC3"
		},
		{
			"bufferView":46,
			"componentType":5126,
			"count":24,
			"type":"VEC2"
		},
		{
			"bufferView":47,
			"componentType":5126,
			"count":24,
			"max":[
				-3.10583233833313,
				0.6711611747741699,
				0.9315710663795471
			],
			"min":[
				-4.663915634155273,
				0.3209461569786072,
				-1.0136178731918335
			],
			"type":"VEC3"
		},
		{
			"bufferView":48,
			"componentType":5126,
			"count":24,
			"type":"VEC3"
		},
		{
			"bufferView":49,
			"componentType":5126,
			"count":24,
			"type":"VEC2"
		},
		{
			"bufferView":50,
			"componentType":5126,
			"count":4,
			"max":[
				-1.446921467781067,
				0.6726102828979492,
				0.9479703307151794
			],
			"min":[
				-3.1123344898223877,
				-0.05327864736318588,
				-0.9721864461898804
			],
			"type":"VEC3"
		},
		{
			"bufferView":51,
			"componentType":5126,
			"count":4,
			"type":"VEC3"
		},
		{
			"bufferView":52,
			"componentType":5126,
			"count":4,
			"type":"VEC2"
		},
		{
			"bufferView":53,
			"componentType":5123,
			"count":6,
			"type":"SCALAR"
		},
		{
			"bufferView":54,
			"componentType":5126,
			"count":24,
			"max":[
				2.7017414569854736,
				0.9823228120803833,
				-0.904021143913269
			],
			"min":[
				0.4437066614627838,
				-0.2306068241596222,
				-1.331405758857727
			],
			"type":"VEC3"
		},
		{
			"bufferView":55,
			"componentType":5126,
			"count":24,
			"type":"VEC3"
		},
		{
			"bufferView":56,
			"componentType":5126,
			"count":24,
			"type":"VEC2"
		},
		{
			"bufferView":57,
			"componentType":5123,
			"count":36,
			"type":"SCALAR"
		},
		{
			"bufferView":58,
			"componentType":5126,
			"count":120,
			"max":[
				-0.22027082741260529,
				1.934160590171814,
				1.262474536895752
			],
			"min":[
				-3.581068277359009,
				-0.3373575210571289,
				-1.3098562955856323
			],
			"type":"VEC3"
		},
		{
			"bufferView":59,
			"componentType":5126,
			"count":120,
			"type":"VEC3"
		},
		{
			"bufferView":60,
			"componentType":5126,
			"count":120,
			"type":"VEC2"
		},
		{
			"bufferView":61,
			"componentType":5123,
			"count":180,
			"type":"SCALAR"
		},
		{
			"bufferView":62,
			"componentType":5126,
			"count":24,
			"max":[
				2.753035068511963,
				0.9754564762115479,
				1.267371416091919
			],
			"min":[
				2.357252836227417,
				-0.18697354197502136,
				-1.3098565340042114
			],
			"type":"VEC3"
		},
		{
			"bufferView":63,
			"componentType":5126,
			"count":24,
			"type":"VEC3"
		},
		{
			"bufferView":64,
			"componentType":5126,
			"count":24,
			"type":"VEC2"
		},
		{
			"bufferView":65,
			"componentType":5123,
			"count":36,
			"type":"SCALAR"
		},
		{
			"bufferView":66,
			"componentType":5126,
			"count":24,
			"max":[
				2.722702980041504,
				0.98944491147995,
				1.3125931024551392
			],
			"min":[
				0.5281744599342346,
				-0.26149627566337585,
				0.9263976812362671
			],
			"type":"VEC3"
		},
		{
			"bufferView":67,
			"componentType":5126,
			"count":24,
			"type":"VEC3"
		},
		{
			"bufferView":68,
			"componentType":5126,
			"count":24,
			"type":"VEC2"
		},
		{
			"bufferView":69,
			"componentType":5123,
			"count":36,
			"type":"SCALAR"
		}
	],
	"bufferViews":[
		{
			"buffer":0,
			"byteLength":128700,
			"byteOffset":0,
			"target":34962
		},
		{
			"buffer":0,
			"byteLength":128700,
			"byteOffset":128700,
			"target":34962
		},
		{
			"buffer":0,
			"byteLength":85800,
			"byteOffset":257400,
			"target":34962
		},
		{
			"buffer":0,
			"byteLength":42540,
			"byteOffset":343200,
			"target":34963
		},
		{
			"buffer":0,
			"byteLength":128640,
			"byteOffset":385740,
			"target":34962
		},
		{
			"buffer":0,
			"byteLength":128640,
			"byteOffset":514380,
			"target":34962
		},
		{
			"buffer":0,
			"byteLength":85760,
			"byteOffset":643020,
			"target":34962
		},
		{
			"buffer":0,
			"byteLength":42516,
			"byteOffset":728780,
			"target":34963
		},
		{
			"buffer":0,
			"byteLength":17052,
			"byteOffset":771296,
			"target":34962
		},
		{
			"buffer":0,
			"byteLength":17052,
			"byteOffset":788348,
			"target":34962
		},
		{
			"buffer":0,
			"byteLength":11368,
			"byteOffset":805400,
			"target":34962
		},
		{
			"buffer":0,
			"byteLength":5448,
			"byteOffset":816768,
			"target":34963
		},
		{
			"buffer":0,
			"byteLength":93792,
			"byteOffset":822216,
			"target":34962
		},
		{
			"buffer":0,
			"byteLength":93792,
			"byteOffset":916008,
			"target":34962
		},
		{
			"buffer":0,
			"byteLength":62528,
			"byteOffset":1009800,
			"target":34962
		},
		{
			"buffer":0,
			"byteLength":30516,
			"byteOffset":1072328,
			"target":34963
		},
		{
			"buffer":0,
			"byteLength":128748,
			"byteOffset":1102844,
			"target":34962
		},
		{
			"buffer":0,
			"byteLength":128748,
			"byteOffset":1231592,
			"target":34962
		},
		{
			"buffer":0,
			"byteLength":85832,
			"byteOffset":1360340,
			"target":34962
		},
		{
			"buffer":0,
			"byteLength":42540,
			"byteOffset":1446172,
			"target":34963
		},
		{
			"buffer":0,
			"byteLength":103896,
			"byteOffset":1488712,
			"target":34962
		},
		{
			"buffer":0,
			"byteLength":103896,
			"byteOffset":1592608,
			"target":34962
		},
		{
			"buffer":0,
			"byteLength":69264,
			"byteOffset":1696504,
			"target":34962
		},
		{
			"buffer":0,
			"byteLength":34260,
			"byteOffset":1765768,
			"target":34963
		},
		{
			"buffer":0,
			"byteLength":103896,
			"byteOffset":1800028,
			"target":34962
		},
		{
			"buffer":0,
			"byteLength":103896,
			"byteOffset":1903924,
			"target":34962
		},
		{
			"buffer":0,
			"byteLength":69264,
			"byteOffset":2007820,
			"target":34962
		},
		{
			"buffer":0,
			"byteLength":34260,
			"byteOffset":2077084,
			"target":34963
		},
		{
			"buffer":0,
			"byteLength":103992,
			"byteOffset":2111344,
			"target":34962
		},
		{
			"buffer":0,
			"byteLength":103992,
			"byteOffset":2215336,
			"target":34962
		},
		{
			"buffer":0,
			"byteLength":69328,
			"byteOffset":2319328,
			"target":34962
		},
		{
			"buffer":0,
			"byteLength":34260,
			"byteOffset":2388656,
			"target":34963
		},
		{
			"buffer":0,
			"byteLength":103740,
			"byteOffset":2422916,
			"target":34962
		},
		{
			"buffer":0,
			"byteLength":103740,
			"byteOffset":2526656,
			"target":34962
		},
		{
			"buffer":0,
			"byteLength":69160,
			"byteOffset":2630396,
			"target":34962
		},
		{
			"buffer":0,
			"byteLength":34260,
			"byteOffset":2699556,
			"target":34963
		},
		{
			"buffer":0,
			"byteLength":103800,
			"byteOffset":2733816,
			"target":34962
		},
		{
			"buffer":0,
			"byteLength":103800,
			"byteOffset":2837616,
			"target":34962
		},
		{
			"buffer":0,
			"byteLength":69200,
			"byteOffset":2941416,
			"target":34962
		},
		{
			"buffer":0,
			"byteLength":34272,
			"byteOffset":3010616,
			"target":34963
		},
		{
			"buffer":0,
			"byteLength":288,
			"byteOffset":3044888,
			"target":34962
		},
		{
			"buffer":0,
			"byteLength":288,
			"byteOffset":3045176,
			"target":34962
		},
		{
			"buffer":0,
			"byteLength":192,
			"byteOffset":3045464,
			"target":34962
		},
		{
			"buffer":0,
			"byteLength":72,
			"byteOffset":3045656,
			"target":34963
		},
		{
			"buffer":0,
			"byteLength":288,
			"byteOffset":3045728,
			"target":34962
		},
		{
			"buffer":0,
			"byteLength":288,
			"byteOffset":3046016,
			"target":34962
		},
		{
			"buffer":0,
			"byteLength":192,
			"byteOffset":3046304,
			"target":34962
		},
		{
			"buffer":0,
			"byteLength":288,
			"byteOffset":3046496,
			"target":34962
		},
		{
			"buffer":0,
			"byteLength":288,
			"byteOffset":3046784,
			"target":34962
		},
		{
			"buffer":0,
			"byteLength":192,
			"byteOffset":3047072,
			"target":34962
		},
		{
			"buffer":0,
			"byteLength":48,
			"byteOffset":3047264,
			"target":34962
		},
		{
			"buffer":0,
			"byteLength":48,
			"byteOffset":3047312,
			"target":34962
		},
		{
			"buffer":0,
			"byteLength":32,
			"byteOffset":3047360,
			"target":34962
		},
		{
			"buffer":0,
			"byteLength":12,
			"byteOffset":3047392,
			"target":34963
		},
		{
			"buffer":0,
			"byteLength":288,
			"byteOffset":3047404,
			"target":34962
		},
		{
			"buffer":0,
			"byteLength":288,
			"byteOffset":3047692,
			"target":34962
		},
		{
			"buffer":0,
			"byteLength":192,
			"byteOffset":3047980,
			"target":34962
		},
		{
			"buffer":0,
			"byteLength":72,
			"byteOffset":3048172,
			"target":34963
		},
		{
			"buffer":0,
			"byteLength":1440,
			"byteOffset":3048244,
			"target":34962
		},
		{
			"buffer":0,
			"byteLength":1440,
			"byteOffset":3049684,
			"target":34962
		},
		{
			"buffer":0,
			"byteLength":960,
			"byteOffset":3051124,
			"target":34962
		},
		{
			"buffer":0,
			"byteLength":360,
			"byteOffset":3052084,
			"target":34963
		},
		{
			"buffer":0,
			"byteLength":288,
			"byteOffset":3052444,
			"target":34962
		},
		{
			"buffer":0,
			"byteLength":288,
			"byteOffset":3052732,
			"target":34962
		},
		{
			"buffer":0,
			"byteLength":192,
			"byteOffset":3053020,
			"target":34962
		},
		{
			"buffer":0,
			"byteLength":72,
			"byteOffset":3053212,
			"target":34963
		},
		{
			"buffer":0,
			"byteLength":288,
			"byteOffset":3053284,
			"target":34962
		},
		{
			"buffer":0,
			"byteLength":288,
			"byteOffset":3053572,
			"target":34962
		},
		{
			"buffer":0,
			"byteLength":192,
			"byteOffset":3053860,
			"target":34962
		},
		{
			"buffer":0,
			"byteLength":72,
			"byteOffset":3054052,
			"target":34963
		}
	],
	"samplers":[
		{
			"magFilter":9728,
			"minFilter":9984
		}
	],
	"buffers":[
		{
			"byteLength":3054124,
			"uri":"Map1.bin"
		}
	]
}
