{
	"asset":{
		"generator":"Khronos glTF Blender I/O v5.1.19",
		"version":"2.0"
	},
	"scene":0,
	"scenes":[
		{
			"name":"Scene",
			"nodes":[
				0
			]
		}
	],
	"nodes":[
		{
			"mesh":0,
			"name":"staff",
			"scale":[
				0.020299017429351807,
				0.01123986765742302,
				0.020299017429351807
			],
			"translation":[
				-0.0032907724380493164,
				0.006452104076743126,
				-0.02097644843161106
			]
		}
	],
	"materials":[
		{
			"doubleSided":true,
			"name":"staff01",
			"normalTexture":{
				"index":0
			},
			"pbrMetallicRoughness":{
				"baseColorTexture":{
					"index":1
				},
				"metallicFactor":0
			}
		},
		{
			"doubleSided":true,
			"emissiveFactor":[
				0.04518771171569824,
				0,
				0.7973474264144897
			],
			"name":"\u30de\u30c6\u30ea\u30a2\u30eb",
			"pbrMetallicRoughness":{
				"baseColorFactor":[
					0.04605025425553322,
					0,
					0.7973474264144897,
					1
				],
				"metallicFactor":0,
				"roughnessFactor":0.5
			}
		}
	],
	"meshes":[
		{
			"name":"Circle.001",
			"primitives":[
				{
					"attributes":{
						"POSITION":0,
						"NORMAL":1,
						"TEXCOORD_0":2
					},
					"indices":3,
					"material":0
				},
				{
					"attributes":{
						"POSITION":4,
						"NORMAL":5,
						"TEXCOORD_0":6
					},
					"indices":7,
					"material":1
				}
			]
		}
	],
	"textures":[
		{
			"sampler":0,
			"source":0
		},
		{
			"sampler":0,
			"source":1
		}
	],
	"images":[
		{
			"mimeType":"image/png",
			"name":"StaffGemRoyalD_normal",
			"uri":"StaffGemRoyalD_normal.png"
		},
		{
			"mimeType":"image/png",
			"name":"StaffGemRoyalD.png",
			"uri":"StaffGemRoyalD.png.png"
		}
	],
	"accessors":[
		{
			"bufferView":0,
			"componentType":5126,
			"count":400,
			"max":[
				2.880913496017456,
				60.417198181152344,
				1.2709943056106567
			],
			"min":[
				-1.2709943056106567,
				-0.4230574369430542,
				-4.840997695922852
			],
			"type":"VEC3"
		},
		{
			"bufferView":1,
			"componentType":5126,
			"count":400,
			"type":"VEC3"
		},
		{
			"bufferView":2,
			"componentType":5126,
			"count":400,
			"type":"VEC2"
		},
		{
			"bufferView":3,
			"componentType":5123,
			"count":576,
			"type":"SCALAR"
		},
		{
			"bufferView":4,
			"componentType":5126,
			"count":60,
			"max":[
				2.843567371368408,
				61.63121032714844,
				-1.6230171918869019
			],
			"min":[
				-0.5311245918273926,
				54.30586624145508,
				-4.184057712554932
			],
			"type":"VEC3"
		},
		{
			"bufferView":5,
			"componentType":5126,
			"count":60,
			"type":"VEC3"
		},
		{
			"bufferView":6,
			"componentType":5126,
			"count":60,
			"type":"VEC2"
		},
		{
			"bufferView":7,
			"componentType":5123,
			"count":60,
			"type":"SCALAR"
		}
	],
	"bufferViews":[
		{
			"buffer":0,
			"byteLength":4800,
			"byteOffset":0,
			"target":34962
		},
		{
			"buffer":0,
			"byteLength":4800,
			"byteOffset":4800,
			"target":34962
		},
		{
			"buffer":0,
			"byteLength":3200,
			"byteOffset":9600,
			"target":34962
		},
		{
			"buffer":0,
			"byteLength":1152,
			"byteOffset":12800,
			"target":34963
		},
		{
			"buffer":0,
			"byteLength":720,
			"byteOffset":13952,
			"target":34962
		},
		{
			"buffer":0,
			"byteLength":720,
			"byteOffset":14672,
			"target":34962
		},
		{
			"buffer":0,
			"byteLength":480,
			"byteOffset":15392,
			"target":34962
		},
		{
			"buffer":0,
			"byteLength":120,
			"byteOffset":15872,
			"target":34963
		}
	],
	"samplers":[
		{
			"magFilter":9729,
			"minFilter":9987
		}
	],
	"buffers":[
		{
			"byteLength":15992,
			"uri":"NewMagicwandBlue.bin"
		}
	]
}
