{
	"asset":{
		"generator":"Khronos glTF Blender I/O v5.1.19",
		"version":"2.0"
	},
	"scene":0,
	"scenes":[
		{
			"name":"Scene",
			"nodes":[
				0,
				1,
				2,
				3,
				4,
				5,
				6,
				7,
				8
			]
		}
	],
	"nodes":[
		{
			"mesh":0,
			"name":"BlockCrackMD.002"
		},
		{
			"mesh":1,
			"name":"COL"
		},
		{
			"mesh":2,
			"name":"COL1"
		},
		{
			"mesh":3,
			"name":"COL2"
		},
		{
			"mesh":4,
			"name":"COL3"
		},
		{
			"mesh":5,
			"name":"COL8"
		},
		{
			"mesh":6,
			"name":"COL4"
		},
		{
			"mesh":7,
			"name":"COL7"
		},
		{
			"mesh":8,
			"name":"COL9"
		}
	],
	"materials":[
		{
			"doubleSided":true,
			"name":"BlockCrackMD_2_Material.002",
			"pbrMetallicRoughness":{
				"baseColorTexture":{
					"index":0
				},
				"metallicFactor":0
			}
		},
		{
			"doubleSided":true,
			"name":"BlockCrackMD_2_Material.001",
			"pbrMetallicRoughness":{
				"baseColorTexture":{
					"index":1
				},
				"metallicFactor":0
			}
		},
		{
			"doubleSided":true,
			"name":"StairsMD_1_Material",
			"pbrMetallicRoughness":{
				"baseColorTexture":{
					"index":2
				},
				"metallicFactor":0
			}
		},
		{
			"doubleSided":true,
			"name":"Gate_1_Material",
			"pbrMetallicRoughness":{
				"baseColorTexture":{
					"index":3
				},
				"metallicFactor":0
			}
		},
		{
			"doubleSided":true,
			"name":"BlockCrackMD_2_Material",
			"pbrMetallicRoughness":{
				"baseColorTexture":{
					"index":4
				},
				"metallicFactor":0
			}
		},
		{
			"doubleSided":true,
			"name":"WallNormalXL_1_Material",
			"pbrMetallicRoughness":{
				"baseColorTexture":{
					"index":5
				},
				"metallicFactor":0
			}
		},
		{
			"doubleSided":true,
			"name":"WallNormalXL_1_Material.001",
			"pbrMetallicRoughness":{
				"baseColorTexture":{
					"index":6
				},
				"metallicFactor":0
			}
		},
		{
			"doubleSided":true,
			"name":"WallNormalXL_1_Material.002",
			"pbrMetallicRoughness":{
				"baseColorTexture":{
					"index":7
				},
				"metallicFactor":0
			}
		},
		{
			"doubleSided":true,
			"name":"WallNormalXL_1_Material.003",
			"pbrMetallicRoughness":{
				"baseColorTexture":{
					"index":8
				},
				"metallicFactor":0
			}
		},
		{
			"doubleSided":true,
			"name":"WallNormalXL_1_Material.004",
			"pbrMetallicRoughness":{
				"baseColorTexture":{
					"index":9
				},
				"metallicFactor":0
			}
		}
	],
	"meshes":[
		{
			"name":"BlockCrackMD_2.002",
			"primitives":[
				{
					"attributes":{
						"POSITION":0,
						"NORMAL":1,
						"TEXCOORD_0":2
					},
					"indices":3,
					"material":0
				},
				{
					"attributes":{
						"POSITION":4,
						"NORMAL":5,
						"TEXCOORD_0":6
					},
					"indices":7,
					"material":1
				},
				{
					"attributes":{
						"POSITION":8,
						"NORMAL":9,
						"TEXCOORD_0":10
					},
					"indices":11,
					"material":2
				},
				{
					"attributes":{
						"POSITION":12,
						"NORMAL":13,
						"TEXCOORD_0":14
					},
					"indices":15,
					"material":3
				},
				{
					"attributes":{
						"POSITION":16,
						"NORMAL":17,
						"TEXCOORD_0":18
					},
					"indices":19,
					"material":4
				},
				{
					"attributes":{
						"POSITION":20,
						"NORMAL":21,
						"TEXCOORD_0":22
					},
					"indices":23,
					"material":5
				},
				{
					"attributes":{
						"POSITION":24,
						"NORMAL":25,
						"TEXCOORD_0":26
					},
					"indices":27,
					"material":6
				},
				{
					"attributes":{
						"POSITION":28,
						"NORMAL":29,
						"TEXCOORD_0":30
					},
					"indices":31,
					"material":7
				},
				{
					"attributes":{
						"POSITION":32,
						"NORMAL":33,
						"TEXCOORD_0":34
					},
					"indices":35,
					"material":8
				},
				{
					"attributes":{
						"POSITION":36,
						"NORMAL":37,
						"TEXCOORD_0":38
					},
					"indices":39,
					"material":9
				}
			]
		},
		{
			"name":"\u7acb\u65b9\u4f53",
			"primitives":[
				{
					"attributes":{
						"POSITION":40,
						"NORMAL":41,
						"TEXCOORD_0":42
					},
					"indices":43
				}
			]
		},
		{
			"name":"\u7acb\u65b9\u4f53.001",
			"primitives":[
				{
					"attributes":{
						"POSITION":44,
						"NORMAL":45,
						"TEXCOORD_0":46
					},
					"indices":43
				}
			]
		},
		{
			"name":"\u7acb\u65b9\u4f53.002",
			"primitives":[
				{
					"attributes":{
						"POSITION":47,
						"NORMAL":48,
						"TEXCOORD_0":49
					},
					"indices":43
				}
			]
		},
		{
			"name":"\u5e73\u9762",
			"primitives":[
				{
					"attributes":{
						"POSITION":50,
						"NORMAL":51,
						"TEXCOORD_0":52
					},
					"indices":53
				}
			]
		},
		{
			"name":"BlockCrackMD_2.004",
			"primitives":[
				{
					"attributes":{
						"POSITION":54,
						"NORMAL":55,
						"TEXCOORD_0":56
					},
					"indices":57
				}
			]
		},
		{
			"name":"\u7acb\u65b9\u4f53.003",
			"primitives":[
				{
					"attributes":{
						"POSITION":58,
						"NORMAL":59,
						"TEXCOORD_0":60
					},
					"indices":61
				}
			]
		},
		{
			"name":"BlockCrackMD_2.005",
			"primitives":[
				{
					"attributes":{
						"POSITION":62,
						"NORMAL":63,
						"TEXCOORD_0":64
					},
					"indices":65
				}
			]
		},
		{
			"name":"BlockCrackMD_2.006",
			"primitives":[
				{
					"attributes":{
						"POSITION":66,
						"NORMAL":67,
						"TEXCOORD_0":68
					},
					"indices":69
				}
			]
		}
	],
	"textures":[
		{
			"sampler":0,
			"source":0
		},
		{
			"sampler":0,
			"source":0
		},
		{
			"sampler":0,
			"source":1
		},
		{
			"sampler":0,
			"source":2
		},
		{
			"sampler":0,
			"source":0
		},
		{
			"sampler":0,
			"source":3
		},
		{
			"sampler":0,
			"source":3
		},
		{
			"sampler":0,
			"source":3
		},
		{
			"sampler":0,
			"source":3
		},
		{
			"sampler":0,
			"source":3
		}
	],
	"images":[
		{
			"mimeType":"image/png",
			"name":"BlockCrackMD_2_Color",
			"uri":"BlockCrackMD_2_Color.png"
		},
		{
			"mimeType":"image/png",
			"name":"StairsMD_1_Color",
			"uri":"StairsMD_1_Color.png"
		},
		{
			"mimeType":"image/png",
			"name":"Gate_1_Color",
			"uri":"Gate_1_Color.png"
		},
		{
			"mimeType":"image/png",
			"name":"WallNormalXL_1_Color",
			"uri":"WallNormalXL_1_Color.png"
		}
	],
	"accessors":[
		{
			"bufferView":0,
			"componentType":5126,
			"count":10722,
			"max":[
				-3.4557368755340576,
				0.7135227918624878,
				0.9856256246566772
			],
			"min":[
				-4.943943977355957,
				0.3515516221523285,
				-1.004210352897644
			],
			"type":"VEC3"
		},
		{
			"bufferView":1,
			"componentType":5126,
			"count":10722,
			"type":"VEC3"
		},
		{
			"bufferView":2,
			"componentType":5126,
			"count":10722,
			"type":"VEC2"
		},
		{
			"bufferView":3,
			"componentType":5123,
			"count":21270,
			"type":"SCALAR"
		},
		{
			"bufferView":4,
			"componentType":5126,
			"count":10719,
			"max":[
				-0.3970834016799927,
				0.028931260108947754,
				0.997900664806366
			],
			"min":[
				-1.885290503501892,
				-0.33303993940353394,
				-0.9919354915618896
			],
			"type":"VEC3"
		},
		{
			"bufferView":5,
			"componentType":5126,
			"count":10719,
			"type":"VEC3"
		},
		{
			"bufferView":6,
			"componentType":5126,
			"count":10719,
			"type":"VEC2"
		},
		{
			"bufferView":7,
			"componentType":5123,
			"count":21258,
			"type":"SCALAR"
		},
		{
			"bufferView":8,
			"componentType":5126,
			"count":1421,
			"max":[
				-1.7362474203109741,
				0.7122612595558167,
				1.0028749704360962
			],
			"min":[
				-3.498629331588745,
				-0.02394658327102661,
				-1.0258383750915527
			],
			"type":"VEC3"
		},
		{
			"bufferView":9,
			"componentType":5126,
			"count":1421,
			"type":"VEC3"
		},
		{
			"bufferView":10,
			"componentType":5126,
			"count":1421,
			"type":"VEC2"
		},
		{
			"bufferView":11,
			"componentType":5123,
			"count":2724,
			"type":"SCALAR"
		},
		{
			"bufferView":12,
			"componentType":5126,
			"count":7816,
			"max":[
				-3.3136649131774902,
				2.029691219329834,
				0.9727045893669128
			],
			"min":[
				-3.68304705619812,
				0.6071104407310486,
				-1.0222375392913818
			],
			"type":"VEC3"
		},
		{
			"bufferView":13,
			"componentType":5126,
			"count":7816,
			"type":"VEC3"
		},
		{
			"bufferView":14,
			"componentType":5126,
			"count":7816,
			"type":"VEC2"
		},
		{
			"bufferView":15,
			"componentType":5123,
			"count":15258,
			"type":"SCALAR"
		},
		{
			"bufferView":16,
			"componentType":5126,
			"count":10729,
			"max":[
				2.6859614849090576,
				0.017202675342559814,
				1.2159059047698975
			],
			"min":[
				0.5659605860710144,
				-0.3063379228115082,
				-1.1874065399169922
			],
			"type":"VEC3"
		},
		{
			"bufferView":17,
			"componentType":5126,
			"count":10729,
			"type":"VEC3"
		},
		{
			"bufferView":18,
			"componentType":5126,
			"count":10729,
			"type":"VEC2"
		},
		{
			"bufferView":19,
			"componentType":5123,
			"count":21270,
			"type":"SCALAR"
		},
		{
			"bufferView":20,
			"componentType":5126,
			"count":8658,
			"max":[
				2.7012810707092285,
				0.9992308616638184,
				-0.9921133518218994
			],
			"min":[
				0.6300860643386841,
				-0.20724771916866302,
				-1.3968309164047241
			],
			"type":"VEC3"
		},
		{
			"bufferView":21,
			"componentType":5126,
			"count":8658,
			"type":"VEC3"
		},
		{
			"bufferView":22,
			"componentType":5126,
			"count":8658,
			"type":"VEC2"
		},
		{
			"bufferView":23,
			"componentType":5123,
			"count":17130,
			"type":"SCALAR"
		},
		{
			"bufferView":24,
			"componentType":5126,
			"count":8658,
			"max":[
				2.6938083171844482,
				0.9871821403503418,
				1.4000037908554077
			],
			"min":[
				0.6226138472557068,
				-0.2192966192960739,
				0.9952863454818726
			],
			"type":"VEC3"
		},
		{
			"bufferView":25,
			"componentType":5126,
			"count":8658,
			"type":"VEC3"
		},
		{
			"bufferView":26,
			"componentType":5126,
			"count":8658,
			"type":"VEC2"
		},
		{
			"bufferView":27,
			"componentType":5123,
			"count":17130,
			"type":"SCALAR"
		},
		{
			"bufferView":28,
			"componentType":5126,
			"count":8666,
			"max":[
				2.9179110527038574,
				0.9665248394012451,
				1.2832382917404175
			],
			"min":[
				2.514233112335205,
				-0.23995397984981537,
				-1.3751585483551025
			],
			"type":"VEC3"
		},
		{
			"bufferView":29,
			"componentType":5126,
			"count":8666,
			"type":"VEC3"
		},
		{
			"bufferView":30,
			"componentType":5126,
			"count":8666,
			"type":"VEC2"
		},
		{
			"bufferView":31,
			"componentType":5123,
			"count":17130,
			"type":"SCALAR"
		},
		{
			"bufferView":32,
			"componentType":5126,
			"count":8645,
			"max":[
				-0.20619194209575653,
				1.9854706525802612,
				1.3817451000213623
			],
			"min":[
				-3.824671745300293,
				-0.27770835161209106,
				0.9063872694969177
			],
			"type":"VEC3"
		},
		{
			"bufferView":33,
			"componentType":5126,
			"count":8645,
			"type":"VEC3"
		},
		{
			"bufferView":34,
			"componentType":5126,
			"count":8645,
			"type":"VEC2"
		},
		{
			"bufferView":35,
			"componentType":5123,
			"count":17130,
			"type":"SCALAR"
		},
		{
			"bufferView":36,
			"componentType":5126,
			"count":8650,
			"max":[
				-0.20619194209575653,
				1.9854706525802612,
				-0.9296461343765259
			],
			"min":[
				-3.824671745300293,
				-0.27770835161209106,
				-1.4050040245056152
			],
			"type":"VEC3"
		},
		{
			"bufferView":37,
			"componentType":5126,
			"count":8650,
			"type":"VEC3"
		},
		{
			"bufferView":38,
			"componentType":5126,
			"count":8650,
			"type":"VEC2"
		},
		{
			"bufferView":39,
			"componentType":5123,
			"count":17136,
			"type":"SCALAR"
		},
		{
			"bufferView":40,
			"componentType":5126,
			"count":24,
			"max":[
				-0.4138162136077881,
				-0.010496363043785095,
				1.0323960781097412
			],
			"min":[
				-1.9983651638031006,
				-0.3200643062591553,
				-1.0424718856811523
			],
			"type":"VEC3"
		},
		{
			"bufferView":41,
			"componentType":5126,
			"count":24,
			"type":"VEC3"
		},
		{
			"bufferView":42,
			"componentType":5126,
			"count":24,
			"type":"VEC2"
		},
		{
			"bufferView":43,
			"componentType":5123,
			"count":36,
			"type":"SCALAR"
		},
		{
			"bufferView":44,
			"componentType":5126,
			"count":24,
			"max":[
				2.7911276817321777,
				-0.010496363043785095,
				1.1432998180389404
			],
			"min":[
				0.5992661714553833,
				-0.3200643062591553,
				-1.153376579284668
			],
			"type":"VEC3"
		},
		{
			"bufferView":45,
			"componentType":5126,
			"count":24,
			"type":"VEC3"
		},
		{
			"bufferView":46,
			"componentType":5126,
			"count":24,
			"type":"VEC2"
		},
		{
			"bufferView":47,
			"componentType":5126,
			"count":24,
			"max":[
				-3.3128879070281982,
				0.7159052491188049,
				0.9936758279800415
			],
			"min":[
				-4.974843502044678,
				0.3423425555229187,
				-1.0811923742294312
			],
			"type":"VEC3"
		},
		{
			"bufferView":48,
			"componentType":5126,
			"count":24,
			"type":"VEC3"
		},
		{
			"bufferView":49,
			"componentType":5126,
			"count":24,
			"type":"VEC2"
		},
		{
			"bufferView":50,
			"componentType":5126,
			"count":4,
			"max":[
				-1.5433828830718994,
				0.7174509763717651,
				1.011168360710144
			],
			"min":[
				-3.3198235034942627,
				-0.05683055520057678,
				-1.0369988679885864
			],
			"type":"VEC3"
		},
		{
			"bufferView":51,
			"componentType":5126,
			"count":4,
			"type":"VEC3"
		},
		{
			"bufferView":52,
			"componentType":5126,
			"count":4,
			"type":"VEC2"
		},
		{
			"bufferView":53,
			"componentType":5123,
			"count":6,
			"type":"SCALAR"
		},
		{
			"bufferView":54,
			"componentType":5126,
			"count":24,
			"max":[
				2.8818576335906982,
				1.0478110313415527,
				-0.9642892479896545
			],
			"min":[
				0.47328710556030273,
				-0.2459806203842163,
				-1.4201661348342896
			],
			"type":"VEC3"
		},
		{
			"bufferView":55,
			"componentType":5126,
			"count":24,
			"type":"VEC3"
		},
		{
			"bufferView":56,
			"componentType":5126,
			"count":24,
			"type":"VEC2"
		},
		{
			"bufferView":57,
			"componentType":5123,
			"count":36,
			"type":"SCALAR"
		},
		{
			"bufferView":58,
			"componentType":5126,
			"count":120,
			"max":[
				-0.2349555492401123,
				2.0631046295166016,
				1.3466395139694214
			],
			"min":[
				-3.8198060989379883,
				-0.3598480224609375,
				-1.3971800804138184
			],
			"type":"VEC3"
		},
		{
			"bufferView":59,
			"componentType":5126,
			"count":120,
			"type":"VEC3"
		},
		{
			"bufferView":60,
			"componentType":5126,
			"count":120,
			"type":"VEC2"
		},
		{
			"bufferView":61,
			"componentType":5123,
			"count":180,
			"type":"SCALAR"
		},
		{
			"bufferView":62,
			"componentType":5126,
			"count":24,
			"max":[
				2.936570644378662,
				1.0404869318008423,
				1.351862907409668
			],
			"min":[
				2.5144031047821045,
				-0.1994384527206421,
				-1.3971803188323975
			],
			"type":"VEC3"
		},
		{
			"bufferView":63,
			"componentType":5126,
			"count":24,
			"type":"VEC3"
		},
		{
			"bufferView":64,
			"componentType":5126,
			"count":24,
			"type":"VEC2"
		},
		{
			"bufferView":65,
			"componentType":5123,
			"count":36,
			"type":"SCALAR"
		},
		{
			"bufferView":66,
			"componentType":5126,
			"count":24,
			"max":[
				2.9042165279388428,
				1.0554078817367554,
				1.400099277496338
			],
			"min":[
				0.563386082649231,
				-0.27892935276031494,
				0.9881575107574463
			],
			"type":"VEC3"
		},
		{
			"bufferView":67,
			"componentType":5126,
			"count":24,
			"type":"VEC3"
		},
		{
			"bufferView":68,
			"componentType":5126,
			"count":24,
			"type":"VEC2"
		},
		{
			"bufferView":69,
			"componentType":5123,
			"count":36,
			"type":"SCALAR"
		}
	],
	"bufferViews":[
		{
			"buffer":0,
			"byteLength":128664,
			"byteOffset":0,
			"target":34962
		},
		{
			"buffer":0,
			"byteLength":128664,
			"byteOffset":128664,
			"target":34962
		},
		{
			"buffer":0,
			"byteLength":85776,
			"byteOffset":257328,
			"target":34962
		},
		{
			"buffer":0,
			"byteLength":42540,
			"byteOffset":343104,
			"target":34963
		},
		{
			"buffer":0,
			"byteLength":128628,
			"byteOffset":385644,
			"target":34962
		},
		{
			"buffer":0,
			"byteLength":128628,
			"byteOffset":514272,
			"target":34962
		},
		{
			"buffer":0,
			"byteLength":85752,
			"byteOffset":642900,
			"target":34962
		},
		{
			"buffer":0,
			"byteLength":42516,
			"byteOffset":728652,
			"target":34963
		},
		{
			"buffer":0,
			"byteLength":17052,
			"byteOffset":771168,
			"target":34962
		},
		{
			"buffer":0,
			"byteLength":17052,
			"byteOffset":788220,
			"target":34962
		},
		{
			"buffer":0,
			"byteLength":11368,
			"byteOffset":805272,
			"target":34962
		},
		{
			"buffer":0,
			"byteLength":5448,
			"byteOffset":816640,
			"target":34963
		},
		{
			"buffer":0,
			"byteLength":93792,
			"byteOffset":822088,
			"target":34962
		},
		{
			"buffer":0,
			"byteLength":93792,
			"byteOffset":915880,
			"target":34962
		},
		{
			"buffer":0,
			"byteLength":62528,
			"byteOffset":1009672,
			"target":34962
		},
		{
			"buffer":0,
			"byteLength":30516,
			"byteOffset":1072200,
			"target":34963
		},
		{
			"buffer":0,
			"byteLength":128748,
			"byteOffset":1102716,
			"target":34962
		},
		{
			"buffer":0,
			"byteLength":128748,
			"byteOffset":1231464,
			"target":34962
		},
		{
			"buffer":0,
			"byteLength":85832,
			"byteOffset":1360212,
			"target":34962
		},
		{
			"buffer":0,
			"byteLength":42540,
			"byteOffset":1446044,
			"target":34963
		},
		{
			"buffer":0,
			"byteLength":103896,
			"byteOffset":1488584,
			"target":34962
		},
		{
			"buffer":0,
			"byteLength":103896,
			"byteOffset":1592480,
			"target":34962
		},
		{
			"buffer":0,
			"byteLength":69264,
			"byteOffset":1696376,
			"target":34962
		},
		{
			"buffer":0,
			"byteLength":34260,
			"byteOffset":1765640,
			"target":34963
		},
		{
			"buffer":0,
			"byteLength":103896,
			"byteOffset":1799900,
			"target":34962
		},
		{
			"buffer":0,
			"byteLength":103896,
			"byteOffset":1903796,
			"target":34962
		},
		{
			"buffer":0,
			"byteLength":69264,
			"byteOffset":2007692,
			"target":34962
		},
		{
			"buffer":0,
			"byteLength":34260,
			"byteOffset":2076956,
			"target":34963
		},
		{
			"buffer":0,
			"byteLength":103992,
			"byteOffset":2111216,
			"target":34962
		},
		{
			"buffer":0,
			"byteLength":103992,
			"byteOffset":2215208,
			"target":34962
		},
		{
			"buffer":0,
			"byteLength":69328,
			"byteOffset":2319200,
			"target":34962
		},
		{
			"buffer":0,
			"byteLength":34260,
			"byteOffset":2388528,
			"target":34963
		},
		{
			"buffer":0,
			"byteLength":103740,
			"byteOffset":2422788,
			"target":34962
		},
		{
			"buffer":0,
			"byteLength":103740,
			"byteOffset":2526528,
			"target":34962
		},
		{
			"buffer":0,
			"byteLength":69160,
			"byteOffset":2630268,
			"target":34962
		},
		{
			"buffer":0,
			"byteLength":34260,
			"byteOffset":2699428,
			"target":34963
		},
		{
			"buffer":0,
			"byteLength":103800,
			"byteOffset":2733688,
			"target":34962
		},
		{
			"buffer":0,
			"byteLength":103800,
			"byteOffset":2837488,
			"target":34962
		},
		{
			"buffer":0,
			"byteLength":69200,
			"byteOffset":2941288,
			"target":34962
		},
		{
			"buffer":0,
			"byteLength":34272,
			"byteOffset":3010488,
			"target":34963
		},
		{
			"buffer":0,
			"byteLength":288,
			"byteOffset":3044760,
			"target":34962
		},
		{
			"buffer":0,
			"byteLength":288,
			"byteOffset":3045048,
			"target":34962
		},
		{
			"buffer":0,
			"byteLength":192,
			"byteOffset":3045336,
			"target":34962
		},
		{
			"buffer":0,
			"byteLength":72,
			"byteOffset":3045528,
			"target":34963
		},
		{
			"buffer":0,
			"byteLength":288,
			"byteOffset":3045600,
			"target":34962
		},
		{
			"buffer":0,
			"byteLength":288,
			"byteOffset":3045888,
			"target":34962
		},
		{
			"buffer":0,
			"byteLength":192,
			"byteOffset":3046176,
			"target":34962
		},
		{
			"buffer":0,
			"byteLength":288,
			"byteOffset":3046368,
			"target":34962
		},
		{
			"buffer":0,
			"byteLength":288,
			"byteOffset":3046656,
			"target":34962
		},
		{
			"buffer":0,
			"byteLength":192,
			"byteOffset":3046944,
			"target":34962
		},
		{
			"buffer":0,
			"byteLength":48,
			"byteOffset":3047136,
			"target":34962
		},
		{
			"buffer":0,
			"byteLength":48,
			"byteOffset":3047184,
			"target":34962
		},
		{
			"buffer":0,
			"byteLength":32,
			"byteOffset":3047232,
			"target":34962
		},
		{
			"buffer":0,
			"byteLength":12,
			"byteOffset":3047264,
			"target":34963
		},
		{
			"buffer":0,
			"byteLength":288,
			"byteOffset":3047276,
			"target":34962
		},
		{
			"buffer":0,
			"byteLength":288,
			"byteOffset":3047564,
			"target":34962
		},
		{
			"buffer":0,
			"byteLength":192,
			"byteOffset":3047852,
			"target":34962
		},
		{
			"buffer":0,
			"byteLength":72,
			"byteOffset":3048044,
			"target":34963
		},
		{
			"buffer":0,
			"byteLength":1440,
			"byteOffset":3048116,
			"target":34962
		},
		{
			"buffer":0,
			"byteLength":1440,
			"byteOffset":3049556,
			"target":34962
		},
		{
			"buffer":0,
			"byteLength":960,
			"byteOffset":3050996,
			"target":34962
		},
		{
			"buffer":0,
			"byteLength":360,
			"byteOffset":3051956,
			"target":34963
		},
		{
			"buffer":0,
			"byteLength":288,
			"byteOffset":3052316,
			"target":34962
		},
		{
			"buffer":0,
			"byteLength":288,
			"byteOffset":3052604,
			"target":34962
		},
		{
			"buffer":0,
			"byteLength":192,
			"byteOffset":3052892,
			"target":34962
		},
		{
			"buffer":0,
			"byteLength":72,
			"byteOffset":3053084,
			"target":34963
		},
		{
			"buffer":0,
			"byteLength":288,
			"byteOffset":3053156,
			"target":34962
		},
		{
			"buffer":0,
			"byteLength":288,
			"byteOffset":3053444,
			"target":34962
		},
		{
			"buffer":0,
			"byteLength":192,
			"byteOffset":3053732,
			"target":34962
		},
		{
			"buffer":0,
			"byteLength":72,
			"byteOffset":3053924,
			"target":34963
		}
	],
	"samplers":[
		{
			"magFilter":9728,
			"minFilter":9984
		}
	],
	"buffers":[
		{
			"byteLength":3053996,
			"uri":"Map1.bin"
		}
	]
}
