{
	"asset":{
		"generator":"Khronos glTF Blender I/O v5.1.19",
		"version":"2.0"
	},
	"scene":0,
	"scenes":[
		{
			"name":"Scene",
			"nodes":[
				0,
				1,
				2,
				3
			]
		}
	],
	"nodes":[
		{
			"mesh":0,
			"name":"BlockNormalMD.001",
			"scale":[
				0.33631280064582825,
				0.33631280064582825,
				0.33631280064582825
			]
		},
		{
			"mesh":1,
			"name":"COL",
			"rotation":[
				0,
				0,
				-1,
				0
			],
			"scale":[
				-2.1443536281585693,
				-0.33740416169166565,
				-1.8186143636703491
			],
			"translation":[
				1.2619469165802002,
				0.31520557403564453,
				-0.09977032244205475
			]
		},
		{
			"mesh":2,
			"name":"COL.001",
			"scale":[
				1.175724983215332,
				0.31972792744636536,
				1.7999581098556519
			],
			"translation":[
				-3.4075610637664795,
				1.5291197299957275,
				0.05796390771865845
			]
		},
		{
			"mesh":3,
			"name":"COL.002",
			"rotation":[
				0,
				0,
				-0.2891233563423157,
				0.9572919607162476
			],
			"scale":[
				1.5318917036056519,
				0.5236911177635193,
				1.9232031106948853
			],
			"translation":[
				-0.9544757008552551,
				1.0038856267929077,
				0.11872246861457825
			]
		}
	],
	"materials":[
		{
			"doubleSided":true,
			"name":"BlockNormalMD_8_Material.001",
			"pbrMetallicRoughness":{
				"baseColorTexture":{
					"index":0
				},
				"metallicFactor":0
			}
		},
		{
			"doubleSided":true,
			"name":"BlockNormalMD_8_Material",
			"pbrMetallicRoughness":{
				"baseColorTexture":{
					"index":1
				},
				"metallicFactor":0
			}
		},
		{
			"doubleSided":true,
			"name":"WallNormalMD_1_Material",
			"pbrMetallicRoughness":{
				"baseColorTexture":{
					"index":2
				},
				"metallicFactor":0
			}
		},
		{
			"doubleSided":true,
			"name":"WallNormalMD_1_Material.001",
			"pbrMetallicRoughness":{
				"baseColorTexture":{
					"index":3
				},
				"metallicFactor":0
			}
		},
		{
			"doubleSided":true,
			"name":"WallNormalMD_1_Material.002",
			"pbrMetallicRoughness":{
				"baseColorTexture":{
					"index":4
				},
				"metallicFactor":0
			}
		},
		{
			"doubleSided":true,
			"name":"StairsMD_1_Material",
			"pbrMetallicRoughness":{
				"baseColorTexture":{
					"index":5
				},
				"metallicFactor":0
			}
		},
		{
			"doubleSided":true,
			"name":"Gate_1_Material",
			"pbrMetallicRoughness":{
				"baseColorTexture":{
					"index":6
				},
				"metallicFactor":0
			}
		},
		{
			"doubleSided":true,
			"name":"WallNormalMD_1_Material.003",
			"pbrMetallicRoughness":{
				"baseColorTexture":{
					"index":7
				},
				"metallicFactor":0
			}
		}
	],
	"meshes":[
		{
			"name":"BlockNormalMD_8.001",
			"primitives":[
				{
					"attributes":{
						"POSITION":0,
						"NORMAL":1,
						"TEXCOORD_0":2
					},
					"indices":3,
					"material":0
				},
				{
					"attributes":{
						"POSITION":4,
						"NORMAL":5,
						"TEXCOORD_0":6
					},
					"indices":7,
					"material":1
				},
				{
					"attributes":{
						"POSITION":8,
						"NORMAL":9,
						"TEXCOORD_0":10
					},
					"indices":11,
					"material":2
				},
				{
					"attributes":{
						"POSITION":12,
						"NORMAL":13,
						"TEXCOORD_0":14
					},
					"indices":15,
					"material":3
				},
				{
					"attributes":{
						"POSITION":16,
						"NORMAL":17,
						"TEXCOORD_0":18
					},
					"indices":19,
					"material":4
				},
				{
					"attributes":{
						"POSITION":20,
						"NORMAL":21,
						"TEXCOORD_0":22
					},
					"indices":23,
					"material":5
				},
				{
					"attributes":{
						"POSITION":24,
						"NORMAL":25,
						"TEXCOORD_0":26
					},
					"indices":27,
					"material":6
				},
				{
					"attributes":{
						"POSITION":28,
						"NORMAL":29,
						"TEXCOORD_0":30
					},
					"indices":31,
					"material":7
				}
			]
		},
		{
			"name":"\u7acb\u65b9\u4f53",
			"primitives":[
				{
					"attributes":{
						"POSITION":32,
						"NORMAL":33,
						"TEXCOORD_0":34
					},
					"indices":35
				}
			]
		},
		{
			"name":"\u7acb\u65b9\u4f53.001",
			"primitives":[
				{
					"attributes":{
						"POSITION":36,
						"NORMAL":37,
						"TEXCOORD_0":38
					},
					"indices":35
				}
			]
		},
		{
			"name":"\u5e73\u9762",
			"primitives":[
				{
					"attributes":{
						"POSITION":39,
						"NORMAL":40,
						"TEXCOORD_0":41
					},
					"indices":42
				}
			]
		}
	],
	"textures":[
		{
			"sampler":0,
			"source":0
		},
		{
			"sampler":0,
			"source":0
		},
		{
			"sampler":0,
			"source":1
		},
		{
			"sampler":0,
			"source":1
		},
		{
			"sampler":0,
			"source":1
		},
		{
			"sampler":0,
			"source":2
		},
		{
			"sampler":0,
			"source":3
		},
		{
			"sampler":0,
			"source":1
		}
	],
	"images":[
		{
			"mimeType":"image/png",
			"name":"BlockNormalMD_8_Color",
			"uri":"BlockNormalMD_8_Color.png"
		},
		{
			"mimeType":"image/png",
			"name":"WallNormalMD_1_Color",
			"uri":"WallNormalMD_1_Color.png"
		},
		{
			"mimeType":"image/png",
			"name":"StairsMD_1_Color",
			"uri":"StairsMD_1_Color.png"
		},
		{
			"mimeType":"image/png",
			"name":"Gate_1_Color",
			"uri":"Gate_1_Color.png"
		}
	],
	"accessors":[
		{
			"bufferView":0,
			"componentType":5126,
			"count":6388,
			"max":[
				-6.663576602935791,
				5.534605026245117,
				5.041731357574463
			],
			"min":[
				-12.27752685546875,
				4.066608905792236,
				-5.2044453620910645
			],
			"type":"VEC3"
		},
		{
			"bufferView":1,
			"componentType":5126,
			"count":6388,
			"type":"VEC3"
		},
		{
			"bufferView":2,
			"componentType":5126,
			"count":6388,
			"type":"VEC2"
		},
		{
			"bufferView":3,
			"componentType":5123,
			"count":12738,
			"type":"SCALAR"
		},
		{
			"bufferView":4,
			"componentType":5126,
			"count":6388,
			"max":[
				10.290364265441895,
				2.0229787826538086,
				5.123088359832764
			],
			"min":[
				-5.670555114746094,
				0.5549826622009277,
				-5.1230878829956055
			],
			"type":"VEC3"
		},
		{
			"bufferView":5,
			"componentType":5126,
			"count":6388,
			"type":"VEC3"
		},
		{
			"bufferView":6,
			"componentType":5126,
			"count":6388,
			"type":"VEC2"
		},
		{
			"bufferView":7,
			"componentType":5123,
			"count":12738,
			"type":"SCALAR"
		},
		{
			"bufferView":8,
			"componentType":5126,
			"count":4836,
			"max":[
				10.664610862731934,
				12.542327880859375,
				7.096858978271484
			],
			"min":[
				-12.921285629272461,
				0.6981415748596191,
				4.9458842277526855
			],
			"type":"VEC3"
		},
		{
			"bufferView":9,
			"componentType":5126,
			"count":4836,
			"type":"VEC3"
		},
		{
			"bufferView":10,
			"componentType":5126,
			"count":4836,
			"type":"VEC2"
		},
		{
			"bufferView":11,
			"componentType":5123,
			"count":9480,
			"type":"SCALAR"
		},
		{
			"bufferView":12,
			"componentType":5126,
			"count":4836,
			"max":[
				10.664610862731934,
				12.775659561157227,
				-4.677090644836426
			],
			"min":[
				-12.921285629272461,
				0.5906414985656738,
				-6.828064918518066
			],
			"type":"VEC3"
		},
		{
			"bufferView":13,
			"componentType":5126,
			"count":4836,
			"type":"VEC3"
		},
		{
			"bufferView":14,
			"componentType":5126,
			"count":4836,
			"type":"VEC2"
		},
		{
			"bufferView":15,
			"componentType":5123,
			"count":9480,
			"type":"SCALAR"
		},
		{
			"bufferView":16,
			"componentType":5126,
			"count":4836,
			"max":[
				11.344372749328613,
				12.8006591796875,
				6.722477436065674
			],
			"min":[
				9.795268058776855,
				0.5736455917358398,
				-6.968008041381836
			],
			"type":"VEC3"
		},
		{
			"bufferView":17,
			"componentType":5126,
			"count":4836,
			"type":"VEC3"
		},
		{
			"bufferView":18,
			"componentType":5126,
			"count":4836,
			"type":"VEC2"
		},
		{
			"bufferView":19,
			"componentType":5123,
			"count":9480,
			"type":"SCALAR"
		},
		{
			"bufferView":20,
			"componentType":5126,
			"count":1421,
			"max":[
				-1.7194867134094238,
				5.373809814453125,
				5.920894145965576
			],
			"min":[
				-6.943216800689697,
				1.8493287563323975,
				-6.093847751617432
			],
			"type":"VEC3"
		},
		{
			"bufferView":21,
			"componentType":5126,
			"count":1421,
			"type":"VEC3"
		},
		{
			"bufferView":22,
			"componentType":5126,
			"count":1421,
			"type":"VEC2"
		},
		{
			"bufferView":23,
			"componentType":5123,
			"count":2724,
			"type":"SCALAR"
		},
		{
			"bufferView":24,
			"componentType":5126,
			"count":7816,
			"max":[
				-6.32045841217041,
				12.555900573730469,
				5.589064598083496
			],
			"min":[
				-7.120753288269043,
				4.711475849151611,
				-5.797354698181152
			],
			"type":"VEC3"
		},
		{
			"bufferView":25,
			"componentType":5126,
			"count":7816,
			"type":"VEC3"
		},
		{
			"bufferView":26,
			"componentType":5126,
			"count":7816,
			"type":"VEC2"
		},
		{
			"bufferView":27,
			"componentType":5123,
			"count":15258,
			"type":"SCALAR"
		},
		{
			"bufferView":28,
			"componentType":5126,
			"count":4836,
			"max":[
				-12.26341724395752,
				12.60801887512207,
				5.854813575744629
			],
			"min":[
				-13.81252384185791,
				0.38100385665893555,
				-5.814897537231445
			],
			"type":"VEC3"
		},
		{
			"bufferView":29,
			"componentType":5126,
			"count":4836,
			"type":"VEC3"
		},
		{
			"bufferView":30,
			"componentType":5126,
			"count":4836,
			"type":"VEC2"
		},
		{
			"bufferView":31,
			"componentType":5123,
			"count":9480,
			"type":"SCALAR"
		},
		{
			"bufferView":32,
			"componentType":5126,
			"count":24,
			"max":[
				1,
				1,
				1
			],
			"min":[
				-1,
				-1,
				-1
			],
			"type":"VEC3"
		},
		{
			"bufferView":33,
			"componentType":5126,
			"count":24,
			"type":"VEC3"
		},
		{
			"bufferView":34,
			"componentType":5126,
			"count":24,
			"type":"VEC2"
		},
		{
			"bufferView":35,
			"componentType":5123,
			"count":36,
			"type":"SCALAR"
		},
		{
			"bufferView":36,
			"componentType":5126,
			"count":24,
			"max":[
				1,
				1,
				1
			],
			"min":[
				-1,
				-1,
				-1
			],
			"type":"VEC3"
		},
		{
			"bufferView":37,
			"componentType":5126,
			"count":24,
			"type":"VEC3"
		},
		{
			"bufferView":38,
			"componentType":5126,
			"count":24,
			"type":"VEC2"
		},
		{
			"bufferView":39,
			"componentType":5126,
			"count":4,
			"max":[
				1,
				0,
				1
			],
			"min":[
				-1,
				0,
				-1
			],
			"type":"VEC3"
		},
		{
			"bufferView":40,
			"componentType":5126,
			"count":4,
			"type":"VEC3"
		},
		{
			"bufferView":41,
			"componentType":5126,
			"count":4,
			"type":"VEC2"
		},
		{
			"bufferView":42,
			"componentType":5123,
			"count":6,
			"type":"SCALAR"
		}
	],
	"bufferViews":[
		{
			"buffer":0,
			"byteLength":76656,
			"byteOffset":0,
			"target":34962
		},
		{
			"buffer":0,
			"byteLength":76656,
			"byteOffset":76656,
			"target":34962
		},
		{
			"buffer":0,
			"byteLength":51104,
			"byteOffset":153312,
			"target":34962
		},
		{
			"buffer":0,
			"byteLength":25476,
			"byteOffset":204416,
			"target":34963
		},
		{
			"buffer":0,
			"byteLength":76656,
			"byteOffset":229892,
			"target":34962
		},
		{
			"buffer":0,
			"byteLength":76656,
			"byteOffset":306548,
			"target":34962
		},
		{
			"buffer":0,
			"byteLength":51104,
			"byteOffset":383204,
			"target":34962
		},
		{
			"buffer":0,
			"byteLength":25476,
			"byteOffset":434308,
			"target":34963
		},
		{
			"buffer":0,
			"byteLength":58032,
			"byteOffset":459784,
			"target":34962
		},
		{
			"buffer":0,
			"byteLength":58032,
			"byteOffset":517816,
			"target":34962
		},
		{
			"buffer":0,
			"byteLength":38688,
			"byteOffset":575848,
			"target":34962
		},
		{
			"buffer":0,
			"byteLength":18960,
			"byteOffset":614536,
			"target":34963
		},
		{
			"buffer":0,
			"byteLength":58032,
			"byteOffset":633496,
			"target":34962
		},
		{
			"buffer":0,
			"byteLength":58032,
			"byteOffset":691528,
			"target":34962
		},
		{
			"buffer":0,
			"byteLength":38688,
			"byteOffset":749560,
			"target":34962
		},
		{
			"buffer":0,
			"byteLength":18960,
			"byteOffset":788248,
			"target":34963
		},
		{
			"buffer":0,
			"byteLength":58032,
			"byteOffset":807208,
			"target":34962
		},
		{
			"buffer":0,
			"byteLength":58032,
			"byteOffset":865240,
			"target":34962
		},
		{
			"buffer":0,
			"byteLength":38688,
			"byteOffset":923272,
			"target":34962
		},
		{
			"buffer":0,
			"byteLength":18960,
			"byteOffset":961960,
			"target":34963
		},
		{
			"buffer":0,
			"byteLength":17052,
			"byteOffset":980920,
			"target":34962
		},
		{
			"buffer":0,
			"byteLength":17052,
			"byteOffset":997972,
			"target":34962
		},
		{
			"buffer":0,
			"byteLength":11368,
			"byteOffset":1015024,
			"target":34962
		},
		{
			"buffer":0,
			"byteLength":5448,
			"byteOffset":1026392,
			"target":34963
		},
		{
			"buffer":0,
			"byteLength":93792,
			"byteOffset":1031840,
			"target":34962
		},
		{
			"buffer":0,
			"byteLength":93792,
			"byteOffset":1125632,
			"target":34962
		},
		{
			"buffer":0,
			"byteLength":62528,
			"byteOffset":1219424,
			"target":34962
		},
		{
			"buffer":0,
			"byteLength":30516,
			"byteOffset":1281952,
			"target":34963
		},
		{
			"buffer":0,
			"byteLength":58032,
			"byteOffset":1312468,
			"target":34962
		},
		{
			"buffer":0,
			"byteLength":58032,
			"byteOffset":1370500,
			"target":34962
		},
		{
			"buffer":0,
			"byteLength":38688,
			"byteOffset":1428532,
			"target":34962
		},
		{
			"buffer":0,
			"byteLength":18960,
			"byteOffset":1467220,
			"target":34963
		},
		{
			"buffer":0,
			"byteLength":288,
			"byteOffset":1486180,
			"target":34962
		},
		{
			"buffer":0,
			"byteLength":288,
			"byteOffset":1486468,
			"target":34962
		},
		{
			"buffer":0,
			"byteLength":192,
			"byteOffset":1486756,
			"target":34962
		},
		{
			"buffer":0,
			"byteLength":72,
			"byteOffset":1486948,
			"target":34963
		},
		{
			"buffer":0,
			"byteLength":288,
			"byteOffset":1487020,
			"target":34962
		},
		{
			"buffer":0,
			"byteLength":288,
			"byteOffset":1487308,
			"target":34962
		},
		{
			"buffer":0,
			"byteLength":192,
			"byteOffset":1487596,
			"target":34962
		},
		{
			"buffer":0,
			"byteLength":48,
			"byteOffset":1487788,
			"target":34962
		},
		{
			"buffer":0,
			"byteLength":48,
			"byteOffset":1487836,
			"target":34962
		},
		{
			"buffer":0,
			"byteLength":32,
			"byteOffset":1487884,
			"target":34962
		},
		{
			"buffer":0,
			"byteLength":12,
			"byteOffset":1487916,
			"target":34963
		}
	],
	"samplers":[
		{
			"magFilter":9728,
			"minFilter":9984
		}
	],
	"buffers":[
		{
			"byteLength":1487928,
			"uri":"Map2.bin"
		}
	]
}
