{
	"asset":{
		"generator":"Khronos glTF Blender I/O v5.1.19",
		"version":"2.0"
	},
	"scene":0,
	"scenes":[
		{
			"name":"Scene",
			"nodes":[
				0,
				1,
				2,
				3,
				4,
				5,
				6,
				7,
				8,
				9,
				10,
				11
			]
		}
	],
	"nodes":[
		{
			"mesh":0,
			"name":"COL"
		},
		{
			"mesh":1,
			"name":"COL.001"
		},
		{
			"mesh":2,
			"name":"COL.002"
		},
		{
			"mesh":3,
			"name":"COL.003"
		},
		{
			"mesh":4,
			"name":"COL.004"
		},
		{
			"mesh":5,
			"name":"COL.005"
		},
		{
			"mesh":6,
			"name":"COL.006"
		},
		{
			"mesh":7,
			"name":"COL.007"
		},
		{
			"mesh":8,
			"name":"COL.008"
		},
		{
			"mesh":9,
			"name":"COL.009"
		},
		{
			"mesh":10,
			"name":"Stage"
		},
		{
			"mesh":11,
			"name":"COL.010"
		}
	],
	"materials":[
		{
			"doubleSided":true,
			"name":"StairBridge_3_Material",
			"pbrMetallicRoughness":{
				"baseColorTexture":{
					"index":0
				},
				"metallicFactor":0
			}
		},
		{
			"doubleSided":true,
			"name":"BlockNormalMD_8_Material.001",
			"pbrMetallicRoughness":{
				"baseColorTexture":{
					"index":1
				},
				"metallicFactor":0
			}
		},
		{
			"doubleSided":true,
			"name":"BlockNormalMD_8_Material",
			"pbrMetallicRoughness":{
				"baseColorTexture":{
					"index":2
				},
				"metallicFactor":0
			}
		},
		{
			"doubleSided":true,
			"name":"WallNormalMD_1_Material",
			"pbrMetallicRoughness":{
				"baseColorTexture":{
					"index":3
				},
				"metallicFactor":0
			}
		},
		{
			"doubleSided":true,
			"name":"WallNormalMD_1_Material.001",
			"pbrMetallicRoughness":{
				"baseColorTexture":{
					"index":4
				},
				"metallicFactor":0
			}
		},
		{
			"doubleSided":true,
			"name":"WallNormalMD_1_Material.002",
			"pbrMetallicRoughness":{
				"baseColorTexture":{
					"index":5
				},
				"metallicFactor":0
			}
		},
		{
			"doubleSided":true,
			"name":"StairsMD_1_Material",
			"pbrMetallicRoughness":{
				"baseColorTexture":{
					"index":6
				},
				"metallicFactor":0
			}
		},
		{
			"doubleSided":true,
			"name":"Gate_1_Material",
			"pbrMetallicRoughness":{
				"baseColorTexture":{
					"index":7
				},
				"metallicFactor":0
			}
		},
		{
			"doubleSided":true,
			"name":"WallNormalMD_1_Material.003",
			"pbrMetallicRoughness":{
				"baseColorTexture":{
					"index":8
				},
				"metallicFactor":0
			}
		}
	],
	"meshes":[
		{
			"name":"\u7acb\u65b9\u4f53",
			"primitives":[
				{
					"attributes":{
						"POSITION":0,
						"NORMAL":1,
						"TEXCOORD_0":2
					},
					"indices":3
				}
			]
		},
		{
			"name":"\u7acb\u65b9\u4f53.001",
			"primitives":[
				{
					"attributes":{
						"POSITION":4,
						"NORMAL":5,
						"TEXCOORD_0":6
					},
					"indices":7
				}
			]
		},
		{
			"name":"\u5e73\u9762",
			"primitives":[
				{
					"attributes":{
						"POSITION":8,
						"NORMAL":9,
						"TEXCOORD_0":10
					},
					"indices":11
				}
			]
		},
		{
			"name":"\u7acb\u65b9\u4f53.002",
			"primitives":[
				{
					"attributes":{
						"POSITION":12,
						"NORMAL":13,
						"TEXCOORD_0":14
					},
					"indices":7
				}
			]
		},
		{
			"name":"\u7acb\u65b9\u4f53.003",
			"primitives":[
				{
					"attributes":{
						"POSITION":15,
						"NORMAL":16,
						"TEXCOORD_0":17
					},
					"indices":7
				}
			]
		},
		{
			"name":"\u7acb\u65b9\u4f53.004",
			"primitives":[
				{
					"attributes":{
						"POSITION":18,
						"NORMAL":19,
						"TEXCOORD_0":20
					},
					"indices":21
				}
			]
		},
		{
			"name":"\u7acb\u65b9\u4f53.005",
			"primitives":[
				{
					"attributes":{
						"POSITION":22,
						"NORMAL":23,
						"TEXCOORD_0":24
					},
					"indices":21
				}
			]
		},
		{
			"name":"\u7acb\u65b9\u4f53.006",
			"primitives":[
				{
					"attributes":{
						"POSITION":25,
						"NORMAL":26,
						"TEXCOORD_0":27
					},
					"indices":3
				}
			]
		},
		{
			"name":"\u7acb\u65b9\u4f53.007",
			"primitives":[
				{
					"attributes":{
						"POSITION":28,
						"NORMAL":29,
						"TEXCOORD_0":30
					},
					"indices":31
				}
			]
		},
		{
			"name":"\u7acb\u65b9\u4f53.008",
			"primitives":[
				{
					"attributes":{
						"POSITION":32,
						"NORMAL":33,
						"TEXCOORD_0":34
					},
					"indices":35
				}
			]
		},
		{
			"name":"StairBridge_3.008",
			"primitives":[
				{
					"attributes":{
						"POSITION":36,
						"NORMAL":37,
						"TEXCOORD_0":38
					},
					"indices":39,
					"material":0
				},
				{
					"attributes":{
						"POSITION":40,
						"NORMAL":41,
						"TEXCOORD_0":42
					},
					"indices":43,
					"material":1
				},
				{
					"attributes":{
						"POSITION":44,
						"NORMAL":45,
						"TEXCOORD_0":46
					},
					"indices":47,
					"material":2
				},
				{
					"attributes":{
						"POSITION":48,
						"NORMAL":49,
						"TEXCOORD_0":50
					},
					"indices":51,
					"material":3
				},
				{
					"attributes":{
						"POSITION":52,
						"NORMAL":53,
						"TEXCOORD_0":54
					},
					"indices":55,
					"material":4
				},
				{
					"attributes":{
						"POSITION":56,
						"NORMAL":57,
						"TEXCOORD_0":58
					},
					"indices":59,
					"material":5
				},
				{
					"attributes":{
						"POSITION":60,
						"NORMAL":61,
						"TEXCOORD_0":62
					},
					"indices":63,
					"material":6
				},
				{
					"attributes":{
						"POSITION":64,
						"NORMAL":65,
						"TEXCOORD_0":66
					},
					"indices":67,
					"material":7
				},
				{
					"attributes":{
						"POSITION":68,
						"NORMAL":69,
						"TEXCOORD_0":70
					},
					"indices":71,
					"material":8
				}
			]
		},
		{
			"name":"\u7acb\u65b9\u4f53.011",
			"primitives":[
				{
					"attributes":{
						"POSITION":72,
						"NORMAL":73,
						"TEXCOORD_0":74
					},
					"indices":75
				}
			]
		}
	],
	"textures":[
		{
			"sampler":0,
			"source":0
		},
		{
			"sampler":0,
			"source":1
		},
		{
			"sampler":0,
			"source":1
		},
		{
			"sampler":0,
			"source":2
		},
		{
			"sampler":0,
			"source":2
		},
		{
			"sampler":0,
			"source":2
		},
		{
			"sampler":0,
			"source":3
		},
		{
			"sampler":0,
			"source":4
		},
		{
			"sampler":0,
			"source":2
		}
	],
	"images":[
		{
			"mimeType":"image/png",
			"name":"StairBridge_3_Color",
			"uri":"StairBridge_3_Color.png"
		},
		{
			"mimeType":"image/png",
			"name":"BlockNormalMD_8_Color",
			"uri":"BlockNormalMD_8_Color.png"
		},
		{
			"mimeType":"image/png",
			"name":"WallNormalMD_1_Color",
			"uri":"WallNormalMD_1_Color.png"
		},
		{
			"mimeType":"image/png",
			"name":"StairsMD_1_Color",
			"uri":"StairsMD_1_Color.png"
		},
		{
			"mimeType":"image/png",
			"name":"Gate_1_Color",
			"uri":"Gate_1_Color.png"
		}
	],
	"accessors":[
		{
			"bufferView":0,
			"componentType":5126,
			"count":24,
			"max":[
				3.4063005447387695,
				0.6526097059249878,
				1.7188440561294556
			],
			"min":[
				-0.8824067115783691,
				-0.022198587656021118,
				-1.9183846712112427
			],
			"type":"VEC3"
		},
		{
			"bufferView":1,
			"componentType":5126,
			"count":24,
			"type":"VEC3"
		},
		{
			"bufferView":2,
			"componentType":5126,
			"count":24,
			"type":"VEC2"
		},
		{
			"bufferView":3,
			"componentType":5123,
			"count":36,
			"type":"SCALAR"
		},
		{
			"bufferView":4,
			"componentType":5126,
			"count":24,
			"max":[
				-2.2318360805511475,
				1.8527216911315918,
				1.857922077178955
			],
			"min":[
				-4.583286285400391,
				1.2132658958435059,
				-1.7419941425323486
			],
			"type":"VEC3"
		},
		{
			"bufferView":5,
			"componentType":5126,
			"count":24,
			"type":"VEC3"
		},
		{
			"bufferView":6,
			"componentType":5126,
			"count":24,
			"type":"VEC2"
		},
		{
			"bufferView":7,
			"componentType":5123,
			"count":36,
			"type":"SCALAR"
		},
		{
			"bufferView":8,
			"componentType":5126,
			"count":4,
			"max":[
				0.32130730152130127,
				1.851865530014038,
				2.0419256687164307
			],
			"min":[
				-2.2302587032318115,
				0.15590578317642212,
				-1.8044806718826294
			],
			"type":"VEC3"
		},
		{
			"bufferView":9,
			"componentType":5126,
			"count":4,
			"type":"VEC3"
		},
		{
			"bufferView":10,
			"componentType":5126,
			"count":4,
			"type":"VEC2"
		},
		{
			"bufferView":11,
			"componentType":5123,
			"count":6,
			"type":"SCALAR"
		},
		{
			"bufferView":12,
			"componentType":5126,
			"count":24,
			"max":[
				3.8816356658935547,
				4.323559761047363,
				-1.5481054782867432
			],
			"min":[
				-4.532341003417969,
				0.06558346748352051,
				-2.2391297817230225
			],
			"type":"VEC3"
		},
		{
			"bufferView":13,
			"componentType":5126,
			"count":24,
			"type":"VEC3"
		},
		{
			"bufferView":14,
			"componentType":5126,
			"count":24,
			"type":"VEC2"
		},
		{
			"bufferView":15,
			"componentType":5126,
			"count":24,
			"max":[
				3.8816356658935547,
				4.323559761047363,
				2.226670265197754
			],
			"min":[
				-4.532341003417969,
				0.06558346748352051,
				1.535645842552185
			],
			"type":"VEC3"
		},
		{
			"bufferView":16,
			"componentType":5126,
			"count":24,
			"type":"VEC3"
		},
		{
			"bufferView":17,
			"componentType":5126,
			"count":24,
			"type":"VEC2"
		},
		{
			"bufferView":18,
			"componentType":5126,
			"count":24,
			"max":[
				3.9260597229003906,
				4.316641807556152,
				2.076942205429077
			],
			"min":[
				3.2335896492004395,
				0.05866527557373047,
				-2.0581610202789307
			],
			"type":"VEC3"
		},
		{
			"bufferView":19,
			"componentType":5126,
			"count":24,
			"type":"VEC3"
		},
		{
			"bufferView":20,
			"componentType":5126,
			"count":24,
			"type":"VEC2"
		},
		{
			"bufferView":21,
			"componentType":5123,
			"count":36,
			"type":"SCALAR"
		},
		{
			"bufferView":22,
			"componentType":5126,
			"count":24,
			"max":[
				-4.119466304779053,
				4.316641807556152,
				2.3643782138824463
			],
			"min":[
				-4.812098979949951,
				0.05866527557373047,
				-2.2369277477264404
			],
			"type":"VEC3"
		},
		{
			"bufferView":23,
			"componentType":5126,
			"count":24,
			"type":"VEC3"
		},
		{
			"bufferView":24,
			"componentType":5126,
			"count":24,
			"type":"VEC2"
		},
		{
			"bufferView":25,
			"componentType":5126,
			"count":24,
			"max":[
				-2.0666251182556152,
				4.308681488037109,
				1.6843944787979126
			],
			"min":[
				-2.474827289581299,
				1.676095962524414,
				1.1279356479644775
			],
			"type":"VEC3"
		},
		{
			"bufferView":26,
			"componentType":5126,
			"count":24,
			"type":"VEC3"
		},
		{
			"bufferView":27,
			"componentType":5126,
			"count":24,
			"type":"VEC2"
		},
		{
			"bufferView":28,
			"componentType":5126,
			"count":24,
			"max":[
				-2.061093807220459,
				4.308681964874268,
				-1.1923555135726929
			],
			"min":[
				-2.480358600616455,
				1.6760963201522827,
				-1.7285181283950806
			],
			"type":"VEC3"
		},
		{
			"bufferView":29,
			"componentType":5126,
			"count":24,
			"type":"VEC3"
		},
		{
			"bufferView":30,
			"componentType":5126,
			"count":24,
			"type":"VEC2"
		},
		{
			"bufferView":31,
			"componentType":5123,
			"count":36,
			"type":"SCALAR"
		},
		{
			"bufferView":32,
			"componentType":5126,
			"count":24,
			"max":[
				-2.0620899200439453,
				4.308495998382568,
				1.5048490762710571
			],
			"min":[
				-2.462218999862671,
				3.975841522216797,
				-1.4353822469711304
			],
			"type":"VEC3"
		},
		{
			"bufferView":33,
			"componentType":5126,
			"count":24,
			"type":"VEC3"
		},
		{
			"bufferView":34,
			"componentType":5126,
			"count":24,
			"type":"VEC2"
		},
		{
			"bufferView":35,
			"componentType":5123,
			"count":36,
			"type":"SCALAR"
		},
		{
			"bufferView":36,
			"componentType":5126,
			"count":5566,
			"max":[
				3.368283748626709,
				3.2565746307373047,
				0.924592137336731
			],
			"min":[
				2.8590645790100098,
				3.010030746459961,
				-0.786713719367981
			],
			"type":"VEC3"
		},
		{
			"bufferView":37,
			"componentType":5126,
			"count":5566,
			"type":"VEC3"
		},
		{
			"bufferView":38,
			"componentType":5126,
			"count":5566,
			"type":"VEC2"
		},
		{
			"bufferView":39,
			"componentType":5123,
			"count":10782,
			"type":"SCALAR"
		},
		{
			"bufferView":40,
			"componentType":5126,
			"count":6388,
			"max":[
				-2.24104642868042,
				1.861358404159546,
				1.69559907913208
			],
			"min":[
				-4.129089832305908,
				1.3676525354385376,
				-1.7503217458724976
			],
			"type":"VEC3"
		},
		{
			"bufferView":41,
			"componentType":5126,
			"count":6388,
			"type":"VEC3"
		},
		{
			"bufferView":42,
			"componentType":5126,
			"count":6388,
			"type":"VEC2"
		},
		{
			"bufferView":43,
			"componentType":5123,
			"count":12738,
			"type":"SCALAR"
		},
		{
			"bufferView":44,
			"componentType":5126,
			"count":6388,
			"max":[
				3.4607813358306885,
				0.6803534030914307,
				1.7229604721069336
			],
			"min":[
				-1.907081127166748,
				0.18664765357971191,
				-1.722960114479065
			],
			"type":"VEC3"
		},
		{
			"bufferView":45,
			"componentType":5126,
			"count":6388,
			"type":"VEC3"
		},
		{
			"bufferView":46,
			"componentType":5126,
			"count":6388,
			"type":"VEC2"
		},
		{
			"bufferView":47,
			"componentType":5123,
			"count":12738,
			"type":"SCALAR"
		},
		{
			"bufferView":48,
			"componentType":5126,
			"count":4836,
			"max":[
				3.5866451263427734,
				4.218145370483398,
				2.260103702545166
			],
			"min":[
				-4.345594882965088,
				0.23479390144348145,
				1.5367028713226318
			],
			"type":"VEC3"
		},
		{
			"bufferView":49,
			"componentType":5126,
			"count":4836,
			"type":"VEC3"
		},
		{
			"bufferView":50,
			"componentType":5126,
			"count":4836,
			"type":"VEC2"
		},
		{
			"bufferView":51,
			"componentType":5123,
			"count":9480,
			"type":"SCALAR"
		},
		{
			"bufferView":52,
			"componentType":5126,
			"count":4836,
			"max":[
				3.5866451263427734,
				4.2966179847717285,
				-1.5729650259017944
			],
			"min":[
				-4.345594882965088,
				0.1986403465270996,
				-2.296365737915039
			],
			"type":"VEC3"
		},
		{
			"bufferView":53,
			"componentType":5126,
			"count":4836,
			"type":"VEC3"
		},
		{
			"bufferView":54,
			"componentType":5126,
			"count":4836,
			"type":"VEC2"
		},
		{
			"bufferView":55,
			"componentType":5123,
			"count":9480,
			"type":"SCALAR"
		},
		{
			"bufferView":56,
			"componentType":5126,
			"count":4836,
			"max":[
				3.8152575492858887,
				4.305025577545166,
				2.2608556747436523
			],
			"min":[
				3.2942733764648438,
				0.19292426109313965,
				-2.343430519104004
			],
			"type":"VEC3"
		},
		{
			"bufferView":57,
			"componentType":5126,
			"count":4836,
			"type":"VEC3"
		},
		{
			"bufferView":58,
			"componentType":5126,
			"count":4836,
			"type":"VEC2"
		},
		{
			"bufferView":59,
			"componentType":5123,
			"count":9480,
			"type":"SCALAR"
		},
		{
			"bufferView":60,
			"componentType":5126,
			"count":1421,
			"max":[
				-0.5782856941223145,
				1.8072808980941772,
				1.9912725687026978
			],
			"min":[
				-2.3350930213928223,
				0.6219527721405029,
				-2.049438953399658
			],
			"type":"VEC3"
		},
		{
			"bufferView":61,
			"componentType":5126,
			"count":1421,
			"type":"VEC3"
		},
		{
			"bufferView":62,
			"componentType":5126,
			"count":1421,
			"type":"VEC2"
		},
		{
			"bufferView":63,
			"componentType":5123,
			"count":2724,
			"type":"SCALAR"
		},
		{
			"bufferView":64,
			"componentType":5126,
			"count":7816,
			"max":[
				-2.1256508827209473,
				4.222710132598877,
				1.8796743154525757
			],
			"min":[
				-2.394801139831543,
				1.5845295190811157,
				-1.949724555015564
			],
			"type":"VEC3"
		},
		{
			"bufferView":65,
			"componentType":5126,
			"count":7816,
			"type":"VEC3"
		},
		{
			"bufferView":66,
			"componentType":5126,
			"count":7816,
			"type":"VEC2"
		},
		{
			"bufferView":67,
			"componentType":5123,
			"count":15258,
			"type":"SCALAR"
		},
		{
			"bufferView":68,
			"componentType":5126,
			"count":4836,
			"max":[
				-4.124344348907471,
				4.240238189697266,
				1.9690487384796143
			],
			"min":[
				-4.645328998565674,
				0.12813639640808105,
				-1.9556242227554321
			],
			"type":"VEC3"
		},
		{
			"bufferView":69,
			"componentType":5126,
			"count":4836,
			"type":"VEC3"
		},
		{
			"bufferView":70,
			"componentType":5126,
			"count":4836,
			"type":"VEC2"
		},
		{
			"bufferView":71,
			"componentType":5123,
			"count":9480,
			"type":"SCALAR"
		},
		{
			"bufferView":72,
			"componentType":5126,
			"count":72,
			"max":[
				3.293846368789673,
				3.262195348739624,
				0.9581899642944336
			],
			"min":[
				2.7793257236480713,
				3.010821580886841,
				-0.792062520980835
			],
			"type":"VEC3"
		},
		{
			"bufferView":73,
			"componentType":5126,
			"count":72,
			"type":"VEC3"
		},
		{
			"bufferView":74,
			"componentType":5126,
			"count":72,
			"type":"VEC2"
		},
		{
			"bufferView":75,
			"componentType":5123,
			"count":108,
			"type":"SCALAR"
		}
	],
	"bufferViews":[
		{
			"buffer":0,
			"byteLength":288,
			"byteOffset":0,
			"target":34962
		},
		{
			"buffer":0,
			"byteLength":288,
			"byteOffset":288,
			"target":34962
		},
		{
			"buffer":0,
			"byteLength":192,
			"byteOffset":576,
			"target":34962
		},
		{
			"buffer":0,
			"byteLength":72,
			"byteOffset":768,
			"target":34963
		},
		{
			"buffer":0,
			"byteLength":288,
			"byteOffset":840,
			"target":34962
		},
		{
			"buffer":0,
			"byteLength":288,
			"byteOffset":1128,
			"target":34962
		},
		{
			"buffer":0,
			"byteLength":192,
			"byteOffset":1416,
			"target":34962
		},
		{
			"buffer":0,
			"byteLength":72,
			"byteOffset":1608,
			"target":34963
		},
		{
			"buffer":0,
			"byteLength":48,
			"byteOffset":1680,
			"target":34962
		},
		{
			"buffer":0,
			"byteLength":48,
			"byteOffset":1728,
			"target":34962
		},
		{
			"buffer":0,
			"byteLength":32,
			"byteOffset":1776,
			"target":34962
		},
		{
			"buffer":0,
			"byteLength":12,
			"byteOffset":1808,
			"target":34963
		},
		{
			"buffer":0,
			"byteLength":288,
			"byteOffset":1820,
			"target":34962
		},
		{
			"buffer":0,
			"byteLength":288,
			"byteOffset":2108,
			"target":34962
		},
		{
			"buffer":0,
			"byteLength":192,
			"byteOffset":2396,
			"target":34962
		},
		{
			"buffer":0,
			"byteLength":288,
			"byteOffset":2588,
			"target":34962
		},
		{
			"buffer":0,
			"byteLength":288,
			"byteOffset":2876,
			"target":34962
		},
		{
			"buffer":0,
			"byteLength":192,
			"byteOffset":3164,
			"target":34962
		},
		{
			"buffer":0,
			"byteLength":288,
			"byteOffset":3356,
			"target":34962
		},
		{
			"buffer":0,
			"byteLength":288,
			"byteOffset":3644,
			"target":34962
		},
		{
			"buffer":0,
			"byteLength":192,
			"byteOffset":3932,
			"target":34962
		},
		{
			"buffer":0,
			"byteLength":72,
			"byteOffset":4124,
			"target":34963
		},
		{
			"buffer":0,
			"byteLength":288,
			"byteOffset":4196,
			"target":34962
		},
		{
			"buffer":0,
			"byteLength":288,
			"byteOffset":4484,
			"target":34962
		},
		{
			"buffer":0,
			"byteLength":192,
			"byteOffset":4772,
			"target":34962
		},
		{
			"buffer":0,
			"byteLength":288,
			"byteOffset":4964,
			"target":34962
		},
		{
			"buffer":0,
			"byteLength":288,
			"byteOffset":5252,
			"target":34962
		},
		{
			"buffer":0,
			"byteLength":192,
			"byteOffset":5540,
			"target":34962
		},
		{
			"buffer":0,
			"byteLength":288,
			"byteOffset":5732,
			"target":34962
		},
		{
			"buffer":0,
			"byteLength":288,
			"byteOffset":6020,
			"target":34962
		},
		{
			"buffer":0,
			"byteLength":192,
			"byteOffset":6308,
			"target":34962
		},
		{
			"buffer":0,
			"byteLength":72,
			"byteOffset":6500,
			"target":34963
		},
		{
			"buffer":0,
			"byteLength":288,
			"byteOffset":6572,
			"target":34962
		},
		{
			"buffer":0,
			"byteLength":288,
			"byteOffset":6860,
			"target":34962
		},
		{
			"buffer":0,
			"byteLength":192,
			"byteOffset":7148,
			"target":34962
		},
		{
			"buffer":0,
			"byteLength":72,
			"byteOffset":7340,
			"target":34963
		},
		{
			"buffer":0,
			"byteLength":66792,
			"byteOffset":7412,
			"target":34962
		},
		{
			"buffer":0,
			"byteLength":66792,
			"byteOffset":74204,
			"target":34962
		},
		{
			"buffer":0,
			"byteLength":44528,
			"byteOffset":140996,
			"target":34962
		},
		{
			"buffer":0,
			"byteLength":21564,
			"byteOffset":185524,
			"target":34963
		},
		{
			"buffer":0,
			"byteLength":76656,
			"byteOffset":207088,
			"target":34962
		},
		{
			"buffer":0,
			"byteLength":76656,
			"byteOffset":283744,
			"target":34962
		},
		{
			"buffer":0,
			"byteLength":51104,
			"byteOffset":360400,
			"target":34962
		},
		{
			"buffer":0,
			"byteLength":25476,
			"byteOffset":411504,
			"target":34963
		},
		{
			"buffer":0,
			"byteLength":76656,
			"byteOffset":436980,
			"target":34962
		},
		{
			"buffer":0,
			"byteLength":76656,
			"byteOffset":513636,
			"target":34962
		},
		{
			"buffer":0,
			"byteLength":51104,
			"byteOffset":590292,
			"target":34962
		},
		{
			"buffer":0,
			"byteLength":25476,
			"byteOffset":641396,
			"target":34963
		},
		{
			"buffer":0,
			"byteLength":58032,
			"byteOffset":666872,
			"target":34962
		},
		{
			"buffer":0,
			"byteLength":58032,
			"byteOffset":724904,
			"target":34962
		},
		{
			"buffer":0,
			"byteLength":38688,
			"byteOffset":782936,
			"target":34962
		},
		{
			"buffer":0,
			"byteLength":18960,
			"byteOffset":821624,
			"target":34963
		},
		{
			"buffer":0,
			"byteLength":58032,
			"byteOffset":840584,
			"target":34962
		},
		{
			"buffer":0,
			"byteLength":58032,
			"byteOffset":898616,
			"target":34962
		},
		{
			"buffer":0,
			"byteLength":38688,
			"byteOffset":956648,
			"target":34962
		},
		{
			"buffer":0,
			"byteLength":18960,
			"byteOffset":995336,
			"target":34963
		},
		{
			"buffer":0,
			"byteLength":58032,
			"byteOffset":1014296,
			"target":34962
		},
		{
			"buffer":0,
			"byteLength":58032,
			"byteOffset":1072328,
			"target":34962
		},
		{
			"buffer":0,
			"byteLength":38688,
			"byteOffset":1130360,
			"target":34962
		},
		{
			"buffer":0,
			"byteLength":18960,
			"byteOffset":1169048,
			"target":34963
		},
		{
			"buffer":0,
			"byteLength":17052,
			"byteOffset":1188008,
			"target":34962
		},
		{
			"buffer":0,
			"byteLength":17052,
			"byteOffset":1205060,
			"target":34962
		},
		{
			"buffer":0,
			"byteLength":11368,
			"byteOffset":1222112,
			"target":34962
		},
		{
			"buffer":0,
			"byteLength":5448,
			"byteOffset":1233480,
			"target":34963
		},
		{
			"buffer":0,
			"byteLength":93792,
			"byteOffset":1238928,
			"target":34962
		},
		{
			"buffer":0,
			"byteLength":93792,
			"byteOffset":1332720,
			"target":34962
		},
		{
			"buffer":0,
			"byteLength":62528,
			"byteOffset":1426512,
			"target":34962
		},
		{
			"buffer":0,
			"byteLength":30516,
			"byteOffset":1489040,
			"target":34963
		},
		{
			"buffer":0,
			"byteLength":58032,
			"byteOffset":1519556,
			"target":34962
		},
		{
			"buffer":0,
			"byteLength":58032,
			"byteOffset":1577588,
			"target":34962
		},
		{
			"buffer":0,
			"byteLength":38688,
			"byteOffset":1635620,
			"target":34962
		},
		{
			"buffer":0,
			"byteLength":18960,
			"byteOffset":1674308,
			"target":34963
		},
		{
			"buffer":0,
			"byteLength":864,
			"byteOffset":1693268,
			"target":34962
		},
		{
			"buffer":0,
			"byteLength":864,
			"byteOffset":1694132,
			"target":34962
		},
		{
			"buffer":0,
			"byteLength":576,
			"byteOffset":1694996,
			"target":34962
		},
		{
			"buffer":0,
			"byteLength":216,
			"byteOffset":1695572,
			"target":34963
		}
	],
	"samplers":[
		{
			"magFilter":9728,
			"minFilter":9984
		}
	],
	"buffers":[
		{
			"byteLength":1695788,
			"uri":"Map3.bin"
		}
	]
}
