{
	"asset":{
		"generator":"Khronos glTF Blender I/O v5.1.19",
		"version":"2.0"
	},
	"scene":0,
	"scenes":[
		{
			"name":"Scene",
			"nodes":[
				0
			]
		}
	],
	"nodes":[
		{
			"mesh":0,
			"name":"GM_Grid",
			"rotation":[
				0,
				0.7071068286895752,
				0,
				0.7071068286895752
			]
		}
	],
	"materials":[
		{
			"doubleSided":true,
			"name":"GM_Grid_01_URP",
			"pbrMetallicRoughness":{
				"baseColorFactor":[
					0.010023506358265877,
					0.010023243725299835,
					0.010022985748946667,
					1
				],
				"metallicFactor":0
			}
		}
	],
	"meshes":[
		{
			"name":"Scene",
			"primitives":[
				{
					"attributes":{
						"POSITION":0,
						"NORMAL":1,
						"TEXCOORD_0":2,
						"TEXCOORD_1":3
					},
					"indices":4,
					"material":0
				}
			]
		}
	],
	"accessors":[
		{
			"bufferView":0,
			"componentType":5126,
			"count":612,
			"max":[
				8.742274815176643e-08,
				1.0000026226043701,
				0.5021917223930359
			],
			"min":[
				-0.049999237060546875,
				-4.2868744433401516e-17,
				-0.4978107213973999
			],
			"type":"VEC3"
		},
		{
			"bufferView":1,
			"componentType":5126,
			"count":612,
			"type":"VEC3"
		},
		{
			"bufferView":2,
			"componentType":5126,
			"count":612,
			"type":"VEC2"
		},
		{
			"bufferView":3,
			"componentType":5126,
			"count":612,
			"type":"VEC2"
		},
		{
			"bufferView":4,
			"componentType":5123,
			"count":1380,
			"type":"SCALAR"
		}
	],
	"bufferViews":[
		{
			"buffer":0,
			"byteLength":7344,
			"byteOffset":0,
			"target":34962
		},
		{
			"buffer":0,
			"byteLength":7344,
			"byteOffset":7344,
			"target":34962
		},
		{
			"buffer":0,
			"byteLength":4896,
			"byteOffset":14688,
			"target":34962
		},
		{
			"buffer":0,
			"byteLength":4896,
			"byteOffset":19584,
			"target":34962
		},
		{
			"buffer":0,
			"byteLength":2760,
			"byteOffset":24480,
			"target":34963
		}
	],
	"buffers":[
		{
			"byteLength":27240,
			"uri":"Cage1.bin"
		}
	]
}
