{
	"asset":{
		"generator":"Khronos glTF Blender I/O v5.1.19",
		"version":"2.0"
	},
	"scene":0,
	"scenes":[
		{
			"name":"Scene",
			"nodes":[
				0,
				1
			]
		}
	],
	"nodes":[
		{
			"mesh":0,
			"name":"Stage"
		},
		{
			"mesh":1,
			"name":"COL"
		}
	],
	"materials":[
		{
			"doubleSided":true,
			"name":"StairBridge_3_Material",
			"pbrMetallicRoughness":{
				"baseColorTexture":{
					"index":0
				},
				"metallicFactor":0
			}
		},
		{
			"doubleSided":true,
			"name":"BlockNormalMD_8_Material.001",
			"pbrMetallicRoughness":{
				"baseColorTexture":{
					"index":1
				},
				"metallicFactor":0
			}
		},
		{
			"doubleSided":true,
			"name":"BlockNormalMD_8_Material",
			"pbrMetallicRoughness":{
				"baseColorTexture":{
					"index":2
				},
				"metallicFactor":0
			}
		},
		{
			"doubleSided":true,
			"name":"WallNormalMD_1_Material",
			"pbrMetallicRoughness":{
				"baseColorTexture":{
					"index":3
				},
				"metallicFactor":0
			}
		},
		{
			"doubleSided":true,
			"name":"WallNormalMD_1_Material.001",
			"pbrMetallicRoughness":{
				"baseColorTexture":{
					"index":4
				},
				"metallicFactor":0
			}
		},
		{
			"doubleSided":true,
			"name":"WallNormalMD_1_Material.002",
			"pbrMetallicRoughness":{
				"baseColorTexture":{
					"index":5
				},
				"metallicFactor":0
			}
		},
		{
			"doubleSided":true,
			"name":"StairsMD_1_Material",
			"pbrMetallicRoughness":{
				"baseColorTexture":{
					"index":6
				},
				"metallicFactor":0
			}
		},
		{
			"doubleSided":true,
			"name":"Gate_1_Material",
			"pbrMetallicRoughness":{
				"baseColorTexture":{
					"index":7
				},
				"metallicFactor":0
			}
		},
		{
			"doubleSided":true,
			"name":"WallNormalMD_1_Material.003",
			"pbrMetallicRoughness":{
				"baseColorTexture":{
					"index":8
				},
				"metallicFactor":0
			}
		}
	],
	"meshes":[
		{
			"name":"StairBridge_3.008",
			"primitives":[
				{
					"attributes":{
						"POSITION":0,
						"NORMAL":1,
						"TEXCOORD_0":2
					},
					"indices":3,
					"material":0
				},
				{
					"attributes":{
						"POSITION":4,
						"NORMAL":5,
						"TEXCOORD_0":6
					},
					"indices":7,
					"material":1
				},
				{
					"attributes":{
						"POSITION":8,
						"NORMAL":9,
						"TEXCOORD_0":10
					},
					"indices":11,
					"material":2
				},
				{
					"attributes":{
						"POSITION":12,
						"NORMAL":13,
						"TEXCOORD_0":14
					},
					"indices":15,
					"material":3
				},
				{
					"attributes":{
						"POSITION":16,
						"NORMAL":17,
						"TEXCOORD_0":18
					},
					"indices":19,
					"material":4
				},
				{
					"attributes":{
						"POSITION":20,
						"NORMAL":21,
						"TEXCOORD_0":22
					},
					"indices":23,
					"material":5
				},
				{
					"attributes":{
						"POSITION":24,
						"NORMAL":25,
						"TEXCOORD_0":26
					},
					"indices":27,
					"material":6
				},
				{
					"attributes":{
						"POSITION":28,
						"NORMAL":29,
						"TEXCOORD_0":30
					},
					"indices":31,
					"material":7
				},
				{
					"attributes":{
						"POSITION":32,
						"NORMAL":33,
						"TEXCOORD_0":34
					},
					"indices":35,
					"material":8
				}
			]
		},
		{
			"name":"\u7acb\u65b9\u4f53.013",
			"primitives":[
				{
					"attributes":{
						"POSITION":36,
						"NORMAL":37,
						"TEXCOORD_0":38
					},
					"indices":39
				}
			]
		}
	],
	"textures":[
		{
			"sampler":0,
			"source":0
		},
		{
			"sampler":0,
			"source":1
		},
		{
			"sampler":0,
			"source":1
		},
		{
			"sampler":0,
			"source":2
		},
		{
			"sampler":0,
			"source":2
		},
		{
			"sampler":0,
			"source":2
		},
		{
			"sampler":0,
			"source":3
		},
		{
			"sampler":0,
			"source":4
		},
		{
			"sampler":0,
			"source":2
		}
	],
	"images":[
		{
			"mimeType":"image/png",
			"name":"StairBridge_3_Color",
			"uri":"StairBridge_3_Color.png"
		},
		{
			"mimeType":"image/png",
			"name":"BlockNormalMD_8_Color",
			"uri":"BlockNormalMD_8_Color.png"
		},
		{
			"mimeType":"image/png",
			"name":"WallNormalMD_1_Color",
			"uri":"WallNormalMD_1_Color.png"
		},
		{
			"mimeType":"image/png",
			"name":"StairsMD_1_Color",
			"uri":"StairsMD_1_Color.png"
		},
		{
			"mimeType":"image/png",
			"name":"Gate_1_Color",
			"uri":"Gate_1_Color.png"
		}
	],
	"accessors":[
		{
			"bufferView":0,
			"componentType":5126,
			"count":5566,
			"max":[
				3.368283748626709,
				3.2565746307373047,
				0.924592137336731
			],
			"min":[
				2.8590645790100098,
				3.010030746459961,
				-0.786713719367981
			],
			"type":"VEC3"
		},
		{
			"bufferView":1,
			"componentType":5126,
			"count":5566,
			"type":"VEC3"
		},
		{
			"bufferView":2,
			"componentType":5126,
			"count":5566,
			"type":"VEC2"
		},
		{
			"bufferView":3,
			"componentType":5123,
			"count":10782,
			"type":"SCALAR"
		},
		{
			"bufferView":4,
			"componentType":5126,
			"count":6388,
			"max":[
				-2.24104642868042,
				1.861358404159546,
				1.69559907913208
			],
			"min":[
				-4.129089832305908,
				1.3676525354385376,
				-1.7503217458724976
			],
			"type":"VEC3"
		},
		{
			"bufferView":5,
			"componentType":5126,
			"count":6388,
			"type":"VEC3"
		},
		{
			"bufferView":6,
			"componentType":5126,
			"count":6388,
			"type":"VEC2"
		},
		{
			"bufferView":7,
			"componentType":5123,
			"count":12738,
			"type":"SCALAR"
		},
		{
			"bufferView":8,
			"componentType":5126,
			"count":6388,
			"max":[
				3.4607813358306885,
				0.6803534030914307,
				1.7229604721069336
			],
			"min":[
				-1.907081127166748,
				0.18664765357971191,
				-1.722960114479065
			],
			"type":"VEC3"
		},
		{
			"bufferView":9,
			"componentType":5126,
			"count":6388,
			"type":"VEC3"
		},
		{
			"bufferView":10,
			"componentType":5126,
			"count":6388,
			"type":"VEC2"
		},
		{
			"bufferView":11,
			"componentType":5123,
			"count":12738,
			"type":"SCALAR"
		},
		{
			"bufferView":12,
			"componentType":5126,
			"count":4836,
			"max":[
				3.5866451263427734,
				4.218145370483398,
				2.260103702545166
			],
			"min":[
				-4.345594882965088,
				0.23479390144348145,
				1.5367028713226318
			],
			"type":"VEC3"
		},
		{
			"bufferView":13,
			"componentType":5126,
			"count":4836,
			"type":"VEC3"
		},
		{
			"bufferView":14,
			"componentType":5126,
			"count":4836,
			"type":"VEC2"
		},
		{
			"bufferView":15,
			"componentType":5123,
			"count":9480,
			"type":"SCALAR"
		},
		{
			"bufferView":16,
			"componentType":5126,
			"count":4836,
			"max":[
				3.5866451263427734,
				4.2966179847717285,
				-1.5729650259017944
			],
			"min":[
				-4.345594882965088,
				0.1986403465270996,
				-2.296365737915039
			],
			"type":"VEC3"
		},
		{
			"bufferView":17,
			"componentType":5126,
			"count":4836,
			"type":"VEC3"
		},
		{
			"bufferView":18,
			"componentType":5126,
			"count":4836,
			"type":"VEC2"
		},
		{
			"bufferView":19,
			"componentType":5123,
			"count":9480,
			"type":"SCALAR"
		},
		{
			"bufferView":20,
			"componentType":5126,
			"count":4836,
			"max":[
				3.8152575492858887,
				4.305025577545166,
				2.2608556747436523
			],
			"min":[
				3.2942733764648438,
				0.19292426109313965,
				-2.343430519104004
			],
			"type":"VEC3"
		},
		{
			"bufferView":21,
			"componentType":5126,
			"count":4836,
			"type":"VEC3"
		},
		{
			"bufferView":22,
			"componentType":5126,
			"count":4836,
			"type":"VEC2"
		},
		{
			"bufferView":23,
			"componentType":5123,
			"count":9480,
			"type":"SCALAR"
		},
		{
			"bufferView":24,
			"componentType":5126,
			"count":1421,
			"max":[
				-0.5782856941223145,
				1.8072808980941772,
				1.9912725687026978
			],
			"min":[
				-2.3350930213928223,
				0.6219527721405029,
				-2.049438953399658
			],
			"type":"VEC3"
		},
		{
			"bufferView":25,
			"componentType":5126,
			"count":1421,
			"type":"VEC3"
		},
		{
			"bufferView":26,
			"componentType":5126,
			"count":1421,
			"type":"VEC2"
		},
		{
			"bufferView":27,
			"componentType":5123,
			"count":2724,
			"type":"SCALAR"
		},
		{
			"bufferView":28,
			"componentType":5126,
			"count":7816,
			"max":[
				-2.1256508827209473,
				4.222710132598877,
				1.8796743154525757
			],
			"min":[
				-2.394801139831543,
				1.5845295190811157,
				-1.949724555015564
			],
			"type":"VEC3"
		},
		{
			"bufferView":29,
			"componentType":5126,
			"count":7816,
			"type":"VEC3"
		},
		{
			"bufferView":30,
			"componentType":5126,
			"count":7816,
			"type":"VEC2"
		},
		{
			"bufferView":31,
			"componentType":5123,
			"count":15258,
			"type":"SCALAR"
		},
		{
			"bufferView":32,
			"componentType":5126,
			"count":4836,
			"max":[
				-4.124344348907471,
				4.240238189697266,
				1.9690487384796143
			],
			"min":[
				-4.645328998565674,
				0.12813639640808105,
				-1.9556242227554321
			],
			"type":"VEC3"
		},
		{
			"bufferView":33,
			"componentType":5126,
			"count":4836,
			"type":"VEC3"
		},
		{
			"bufferView":34,
			"componentType":5126,
			"count":4836,
			"type":"VEC2"
		},
		{
			"bufferView":35,
			"componentType":5123,
			"count":9480,
			"type":"SCALAR"
		},
		{
			"bufferView":36,
			"componentType":5126,
			"count":312,
			"max":[
				3.926060199737549,
				4.323559761047363,
				2.3643782138824463
			],
			"min":[
				-4.812098503112793,
				-0.024689048528671265,
				-2.2391297817230225
			],
			"type":"VEC3"
		},
		{
			"bufferView":37,
			"componentType":5126,
			"count":312,
			"type":"VEC3"
		},
		{
			"bufferView":38,
			"componentType":5126,
			"count":312,
			"type":"VEC2"
		},
		{
			"bufferView":39,
			"componentType":5123,
			"count":468,
			"type":"SCALAR"
		}
	],
	"bufferViews":[
		{
			"buffer":0,
			"byteLength":66792,
			"byteOffset":0,
			"target":34962
		},
		{
			"buffer":0,
			"byteLength":66792,
			"byteOffset":66792,
			"target":34962
		},
		{
			"buffer":0,
			"byteLength":44528,
			"byteOffset":133584,
			"target":34962
		},
		{
			"buffer":0,
			"byteLength":21564,
			"byteOffset":178112,
			"target":34963
		},
		{
			"buffer":0,
			"byteLength":76656,
			"byteOffset":199676,
			"target":34962
		},
		{
			"buffer":0,
			"byteLength":76656,
			"byteOffset":276332,
			"target":34962
		},
		{
			"buffer":0,
			"byteLength":51104,
			"byteOffset":352988,
			"target":34962
		},
		{
			"buffer":0,
			"byteLength":25476,
			"byteOffset":404092,
			"target":34963
		},
		{
			"buffer":0,
			"byteLength":76656,
			"byteOffset":429568,
			"target":34962
		},
		{
			"buffer":0,
			"byteLength":76656,
			"byteOffset":506224,
			"target":34962
		},
		{
			"buffer":0,
			"byteLength":51104,
			"byteOffset":582880,
			"target":34962
		},
		{
			"buffer":0,
			"byteLength":25476,
			"byteOffset":633984,
			"target":34963
		},
		{
			"buffer":0,
			"byteLength":58032,
			"byteOffset":659460,
			"target":34962
		},
		{
			"buffer":0,
			"byteLength":58032,
			"byteOffset":717492,
			"target":34962
		},
		{
			"buffer":0,
			"byteLength":38688,
			"byteOffset":775524,
			"target":34962
		},
		{
			"buffer":0,
			"byteLength":18960,
			"byteOffset":814212,
			"target":34963
		},
		{
			"buffer":0,
			"byteLength":58032,
			"byteOffset":833172,
			"target":34962
		},
		{
			"buffer":0,
			"byteLength":58032,
			"byteOffset":891204,
			"target":34962
		},
		{
			"buffer":0,
			"byteLength":38688,
			"byteOffset":949236,
			"target":34962
		},
		{
			"buffer":0,
			"byteLength":18960,
			"byteOffset":987924,
			"target":34963
		},
		{
			"buffer":0,
			"byteLength":58032,
			"byteOffset":1006884,
			"target":34962
		},
		{
			"buffer":0,
			"byteLength":58032,
			"byteOffset":1064916,
			"target":34962
		},
		{
			"buffer":0,
			"byteLength":38688,
			"byteOffset":1122948,
			"target":34962
		},
		{
			"buffer":0,
			"byteLength":18960,
			"byteOffset":1161636,
			"target":34963
		},
		{
			"buffer":0,
			"byteLength":17052,
			"byteOffset":1180596,
			"target":34962
		},
		{
			"buffer":0,
			"byteLength":17052,
			"byteOffset":1197648,
			"target":34962
		},
		{
			"buffer":0,
			"byteLength":11368,
			"byteOffset":1214700,
			"target":34962
		},
		{
			"buffer":0,
			"byteLength":5448,
			"byteOffset":1226068,
			"target":34963
		},
		{
			"buffer":0,
			"byteLength":93792,
			"byteOffset":1231516,
			"target":34962
		},
		{
			"buffer":0,
			"byteLength":93792,
			"byteOffset":1325308,
			"target":34962
		},
		{
			"buffer":0,
			"byteLength":62528,
			"byteOffset":1419100,
			"target":34962
		},
		{
			"buffer":0,
			"byteLength":30516,
			"byteOffset":1481628,
			"target":34963
		},
		{
			"buffer":0,
			"byteLength":58032,
			"byteOffset":1512144,
			"target":34962
		},
		{
			"buffer":0,
			"byteLength":58032,
			"byteOffset":1570176,
			"target":34962
		},
		{
			"buffer":0,
			"byteLength":38688,
			"byteOffset":1628208,
			"target":34962
		},
		{
			"buffer":0,
			"byteLength":18960,
			"byteOffset":1666896,
			"target":34963
		},
		{
			"buffer":0,
			"byteLength":3744,
			"byteOffset":1685856,
			"target":34962
		},
		{
			"buffer":0,
			"byteLength":3744,
			"byteOffset":1689600,
			"target":34962
		},
		{
			"buffer":0,
			"byteLength":2496,
			"byteOffset":1693344,
			"target":34962
		},
		{
			"buffer":0,
			"byteLength":936,
			"byteOffset":1695840,
			"target":34963
		}
	],
	"samplers":[
		{
			"magFilter":9728,
			"minFilter":9984
		}
	],
	"buffers":[
		{
			"byteLength":1696776,
			"uri":"Map3.bin"
		}
	]
}
